<svg id="assets" xmlns="http://www.w3.org/2000/svg" viewBox="0 0 864 864"><defs><style>.cls-1{fill:none;}.cls-1,.cls-2{stroke:#231f20;stroke-linecap:round;stroke-miterlimit:10;stroke-width:20px;}.cls-2,.cls-4{fill:#231f20;}.cls-3,.cls-4{font-size:60px;font-family:NexaRustSans-Black, Nexa Rust Sans;}.cls-3{fill:#fff;}.cls-5{letter-spacing:-0.14em;}.cls-6{letter-spacing:0.02em;}.cls-7{letter-spacing:-0.2em;}</style></defs><title>eatplaylearn</title><g id="mytime"><circle class="cls-1" cx="432" cy="432" r="396.07"/><path class="cls-2" d="M668.73,748.66a366.63,366.63,0,0,1-141.35,67.85,361.47,361.47,0,0,1-96.4,9.14A372.83,372.83,0,0,1,173,731L433,453Z"/><text class="cls-3" transform="translate(592.28 748.2)">5</text><circle class="cls-1" cx="432" cy="432" r="396.07"/><path class="cls-2" d="M182.72,124.21C151.65,152.53,87.68,218.79,57,325c-9.37,32.42-34.13,122.44-3,225.59A381.55,381.55,0,0,0,173,731L424.28,441.55Z"/><text class="cls-4" transform="translate(468.28 286.04)">E<tspan class="cls-5" x="41.94" y="0">A</tspan><tspan x="87.18" y="0">T</tspan><tspan x="0" y="72">P</tspan><tspan class="cls-6" x="44.52" y="72">L</tspan><tspan class="cls-7" x="85.56" y="72">A</tspan><tspan x="127.2" y="72">Y</tspan><tspan x="0" y="144">LEARN</tspan></text><text class="cls-3" transform="translate(152.6 211.64)">11</text></g></svg>