<svg id="assets" xmlns="http://www.w3.org/2000/svg" viewBox="0 0 864 864"><defs><style>.cls-1,.cls-2,.cls-3{fill:#231f20;}.cls-1,.cls-3{stroke:#231f20;stroke-miterlimit:10;}.cls-1{stroke-width:7.48px;}.cls-3{stroke-width:5.26px;}</style></defs><title>gradcap</title><g id="gradcap"><path class="cls-1" d="M438.91,484.22,33.59,330.43l405.33-151,391.8,147.9Z"/><path class="cls-1" d="M438.92,648.78c-58.94-.44-135.33-10.88-211.22-52-10.82-5.87-21-12-30.61-18.37V422.26l242,82.34,229.43-82.34v153a359.88,359.88,0,0,1-32.25,21.35C564.57,638.73,491.46,648.26,438.92,648.78Z"/><rect class="cls-2" x="751.19" y="345.74" width="12.57" height="321.4"/><circle class="cls-2" cx="757.31" cy="490.1" r="22.85"/><path class="cls-3" d="M739.31,541.9c-1.56-16.83,9.27-28.86,17.66-29s19.82,11.83,18.42,29q4.4,69.75,8.78,139.51a36.09,36.09,0,0,0-52.65,0Q735.42,611.65,739.31,541.9Z"/></g></svg>