<svg id="assets" xmlns="http://www.w3.org/2000/svg" viewBox="0 0 864 864"><defs><style>.cls-1,.cls-2,.cls-3,.cls-4{fill:none;stroke-miterlimit:10;}.cls-1,.cls-2{stroke:#ef484c;}.cls-1,.cls-3{stroke-width:14.68px;}.cls-2,.cls-4{stroke-linecap:round;stroke-width:14.68px;}.cls-3,.cls-4{stroke:#3c68b2;}</style></defs><title>left-right</title><g id="left_right_brain" data-name="left right brain"><path class="cls-1" d="M412.76,803.56c-19.45,11.7-54.19,28.62-99.79,30.79-19.44.92-51.24,2.43-85.19-15-28.29-14.55-45.63-35.89-54.36-46.85a189.16,189.16,0,0,1-38.43-85,163.81,163.81,0,0,1-35.84-28.28c-10-10.49-24.17-28.15-37.44-62.45-14-36.09-43.17-111.52-7.12-169.64a114.12,114.12,0,0,1,22.28-26,262.74,262.74,0,0,1-11.14-81.7c.67-28.31,1.48-63,24.14-96.55A145.94,145.94,0,0,1,127,185.75a149.44,149.44,0,0,1,53.44-23.27A95.33,95.33,0,0,0,192,141.19a94.31,94.31,0,0,0,5.57-22.28c2.56-18,33.34-77.46,94.41-88.13,45.51-8,93.21,13.78,120.56,55Z"/><path class="cls-2" d="M307.42,230.39c-5.37,2.44-37.77,16.55-73.35,1.33-44.17-18.89-53-65.79-53.63-69.24"/><path class="cls-2" d="M170.05,435.78a79.77,79.77,0,0,1-50.68,0c-26.47-9-39.28-29.21-42.5-34.65"/><path class="cls-2" d="M268.74,563.81c-4.75-.94-58.55-10.68-100,29.35S135,686.92,135.8,691.77"/><path class="cls-2" d="M259.41,674.51c.09-8.53-.93-28.91-14.67-48-25.89-36-72.59-33.58-76-33.34"/><path class="cls-2" d="M307.42,330.42c8.54-1.67,31.44-4.92,56,6.66,37,17.45,47.64,54.32,49.19,60"/><path class="cls-2" d="M175.32,262.33c-21.31,26-22.63,62.39-4.17,87.65,15.28,20.93,42,31.39,68.86,27.13-1.08,4-11.44,45.32,16.7,79.3,23.57,28.47,56.91,31,62.6,31.31"/><path class="cls-3" d="M444.24,803.56c19.45,11.7,54.19,28.62,99.79,30.79,19.44.92,51.24,2.43,85.19-15,28.29-14.55,45.63-35.89,54.36-46.85a189.16,189.16,0,0,0,38.43-85,164,164,0,0,0,35.84-28.28c10-10.49,24.17-28.15,37.44-62.45,14-36.09,43.17-111.52,7.12-169.64a114.12,114.12,0,0,0-22.28-26,262.74,262.74,0,0,0,11.14-81.7c-.67-28.31-1.48-63-24.14-96.55A145.94,145.94,0,0,0,730,185.75a149.51,149.51,0,0,0-53.44-23.27A95.33,95.33,0,0,1,665,141.19a94.31,94.31,0,0,1-5.57-22.28c-2.56-18-33.34-77.46-94.41-88.13-45.51-8-93.21,13.78-120.56,55Z"/><path class="cls-4" d="M549.58,230.39c5.36,2.44,37.77,16.55,73.35,1.33,44.17-18.89,53-65.79,53.63-69.24"/><path class="cls-4" d="M687,435.78a79.77,79.77,0,0,0,50.68,0c26.47-9,39.28-29.21,42.5-34.65"/><path class="cls-4" d="M588.26,563.81c4.75-.94,58.55-10.68,100,29.35S722,686.92,721.2,691.77"/><path class="cls-4" d="M597.59,674.51c-.09-8.53.92-28.91,14.67-48,25.89-36,72.59-33.58,76-33.34"/><path class="cls-4" d="M549.58,330.42c-8.54-1.67-31.44-4.92-56,6.66-37,17.45-47.64,54.32-49.19,60"/><path class="cls-4" d="M681.68,262.33c21.31,26,22.63,62.39,4.17,87.65-15.28,20.93-42.05,31.39-68.86,27.13,1.08,4,11.44,45.32-16.7,79.3-23.57,28.47-56.91,31-62.6,31.31"/></g></svg>