<svg id="assets" xmlns="http://www.w3.org/2000/svg" viewBox="0 0 390.17 820.36"><defs><style>.cls-1,.cls-2{fill:none;stroke:#ef484c;stroke-miterlimit:10;}.cls-1{stroke-width:14.68px;}.cls-2{stroke-linecap:round;stroke-width:14.68px;}</style></defs><title>left</title><g id="left_right_brain" data-name="left right brain"><path class="cls-1" d="M382.84,781.74c-19.46,11.7-54.2,28.63-99.79,30.79-19.45.92-51.25,2.43-85.19-15-28.3-14.55-45.63-35.88-54.37-46.85a189,189,0,0,1-38.43-85,164,164,0,0,1-35.84-28.28C59.2,626.9,45.05,609.24,31.78,575c-14-36.1-43.17-111.53-7.12-169.65a114.12,114.12,0,0,1,22.28-26,262.74,262.74,0,0,1-11.14-81.7c.67-28.31,1.48-63,24.14-96.54a145.92,145.92,0,0,1,37.13-37.14,149.51,149.51,0,0,1,53.44-23.27,93.84,93.84,0,0,0,17.12-43.57C170.19,79.12,201,19.63,262,9c45.51-8,93.21,13.78,120.56,55Z"/><path class="cls-2" d="M277.49,208.57c-5.36,2.44-37.77,16.55-73.35,1.33-44.17-18.89-53-65.79-53.63-69.24"/><path class="cls-2" d="M140.12,414a79.77,79.77,0,0,1-50.68,0c-26.46-9-39.28-29.2-42.5-34.65"/><path class="cls-2" d="M238.82,542c-4.76-1-58.56-10.69-100,29.34S105.1,665.1,105.87,670"/><path class="cls-2" d="M229.48,652.69c.09-8.53-.92-28.91-14.67-48-25.89-36-72.59-33.57-76-33.34"/><path class="cls-2" d="M277.49,308.6c8.54-1.67,31.44-4.92,56,6.67,37,17.44,47.65,54.31,49.19,60"/><path class="cls-2" d="M145.39,240.52c-21.31,26-22.63,62.38-4.17,87.64,15.28,20.94,42.05,31.39,68.87,27.13-1.09,4-11.45,45.32,16.69,79.3,23.57,28.47,56.91,31,62.61,31.31"/></g></svg>