<svg id="assets" xmlns="http://www.w3.org/2000/svg" viewBox="0 0 864 864"><defs><style>.cls-1,.cls-2{fill:#231f20;}.cls-2{font-size:60px;font-family:NexaRustSans-Black, Nexa Rust Sans;}.cls-3{letter-spacing:-0.03em;}.cls-4{letter-spacing:-0.2em;}.cls-5{letter-spacing:0em;}.cls-6,.cls-7,.cls-8{fill:none;stroke:#231f20;stroke-miterlimit:10;}.cls-6{stroke-width:1.89px;}.cls-7{stroke-width:2.37px;}.cls-8{stroke-linecap:round;stroke-width:2px;}</style></defs><title>main</title><g id="main"><g id="Computer"><path class="cls-1" d="M604.4,465.37q-3-106.36-6.07-212.72c-.15-5.29-5.69-7-9.29-5.26a5.62,5.62,0,0,0-4.51-2L267.41,247a5.64,5.64,0,0,0-5.65,4.24,5.86,5.86,0,0,0-1.3,3.74q-1.69,107.12-.07,214.25a5.93,5.93,0,0,0,1.1,3.47,6,6,0,0,0,5.89,5.81q66.81,2.69,133.67,2.76c0,.12,0,.23,0,.36.16,3.34,1.38,9-.66,11.78-1.7,2.32-7.28,4.52-9.78,6.16-6.65,4.34-13.22,8.8-20.06,12.85-.12.07-.21.16-.32.23a3.4,3.4,0,0,0-.3.23,6.27,6.27,0,0,0,2.6,10.92,5.18,5.18,0,0,0,1.89.08c41.17-.61,82.34.65,123.52,0,7.18-.11,7.84-10.24,2-12a6.55,6.55,0,0,0-1.61-1.4L479.12,499c-2.61-1.57-6.07-3-8.23-5.2-3.17-3.2-2.62-7.24-2.27-11.36a6.65,6.65,0,0,0-.08-1.63q64.59-1.14,129.14-4.65c4.34-.23,6.29-4.08,5.86-7.41A5.81,5.81,0,0,0,604.4,465.37ZM586.16,257.52,591,425.88q-159.35,3.31-318.73,1.25-.76-83.91.49-167.83l311.81-1.56A6.48,6.48,0,0,0,586.16,257.52ZM272.67,466.4c-.13-9-.21-18-.3-27q159.47,2.07,318.94-1.26.38,13,.74,25.91Q432.5,472.57,272.67,466.4Zm192.41,38.33c3.52,2.51,7.22,4.8,11,7-27,.06-54.08-.39-81.12-.33,2.91-1.91,5.84-3.82,8.81-5.65,3.61-2.22,7.26-4.13,9-8.2,2-4.76.87-11,.63-15.93,0-.13,0-.25,0-.38q21.66,0,43.31-.34a6.72,6.72,0,0,0-.3,1.47C455.53,491.58,457.26,499.16,465.08,504.73Z"/></g><path id="Glasses" class="cls-1" d="M367.28,604.68a2.43,2.43,0,0,0-3.12-1.64,2.29,2.29,0,0,0-1.75-.14L362,603a2.32,2.32,0,0,0-.56-.39c-11.75-6-24.12-12.13-36.78-16-4.45-1.36-9.64-1.74-13.41,1.51a8.3,8.3,0,0,0-1.9,10.39c1.45,2.87,5.77.35,4.32-2.52-2.1-4.16,3-5.56,5.73-5.42a23.57,23.57,0,0,1,6.62,1.8c3.91,1.41,7.78,3,11.62,4.61,5.91,2.49,11.73,5.19,17.47,8L334.89,611a2.55,2.55,0,0,0-.88,4.36c0,1.4,0,3,.1,4.66a2.78,2.78,0,0,0-.94.37,14.77,14.77,0,0,1-7,2.4c-.23-1.27-.49-2.45-.75-3.47a2.23,2.23,0,0,0-1.35-1.59c.65-1.57,0-3.62-2.14-3.36a321.56,321.56,0,0,0-32.44,5.77,2.16,2.16,0,0,0-1.61,1.32q-9.59-3.76-19.26-7.31c-6.1-2.22-12.65-5.38-19.15-6.16-10.16-1.21-13.27,8.42-8.92,16.22,1.56,2.81,5.88.29,4.31-2.52-1.26-2.27-2.86-6.22.12-8.23,1.62-1.1,4.18-.54,5.93-.15,4,.91,8,2.64,11.83,4q12.6,4.5,25.05,9.43c-.46,5.47-.35,11.5,4,15.51s10.76,2.82,15.95,1.28c3.9-1.16,7.77-2.48,11.63-3.77,1.88-.63,3.77-1,5.08-2.61,1.94-2.32,2.44-5.88,2.3-9.44a20.06,20.06,0,0,0,7.94-2.42,10.8,10.8,0,0,0,2.69,5.52c4.08,4,11.14,1.74,15.65,0s12.08-3.53,14.48-8.29C370.14,617.29,368.85,610,367.28,604.68Zm-46.88,29c-2,2.29-8.41,3.25-11.39,4.21-4.24,1.35-9.54,3.54-13.69.82-3.8-2.49-2.76-9.32-2.41-13a2.25,2.25,0,0,0-.2-1.22c9.21-2.08,18.49-3.76,27.86-5a2.37,2.37,0,0,0,.06,1.08C321.46,623.88,322.87,630.82,320.4,633.7Zm43.14-15c-1,3.68-5.07,4.4-8.28,5.77-2.39,1-9.4,4.85-12.2,3.53-4.46-2.09-3.94-8.83-4.06-13l24-7.06C363.87,611.39,364.48,615.39,363.54,618.71Z"/><g id="Phone"><path class="cls-1" d="M722.65,725.38a6.05,6.05,0,0,0-5.64.15,5.57,5.57,0,0,0-3.27,4.45,5.84,5.84,0,0,0,2.82,5.16,6.31,6.31,0,0,0,6.4.32,5.46,5.46,0,0,0,2.61-5.72C725.29,727.91,725,726.59,722.65,725.38Z"/><path class="cls-1" d="M744.69,750.88q7.89-22.05,15.74-44.12c4.72-13.29,11.19-27,13.14-41.09a2.13,2.13,0,0,0-1-2.23,2.39,2.39,0,0,0-1.37-1.33q-24-9.79-48.63-17.72a2.41,2.41,0,0,0-2.75.87,2.38,2.38,0,0,0-3.11,1.42q-15.32,40.73-29.56,81.82a2.88,2.88,0,0,0-.12,1.57,2.55,2.55,0,0,0,1.07,3.86l52,19.26a2.38,2.38,0,0,0,2.54-.63A2.43,2.43,0,0,0,744.69,750.88Zm23.71-84.51c-1.07,6.51-3.5,12.7-5.69,18.91-2.53,7.21-5.12,14.54-7.68,21.74-4.83,13.61-9.55,26.82-14.61,40.94L691.9,730c9.52-27.4,19.12-54,29.17-80.71C737,654.44,752.85,660.05,768.4,666.37Z"/><path class="cls-1" d="M723.25,659.18c-6.06,17.31-12.37,34.54-18.44,51.85,0,.07,0,.14,0,.22a2.4,2.4,0,0,0,1.34,3.3l32.84,12.6A2.22,2.22,0,0,0,741,727a2.28,2.28,0,0,0,1.15-1.32q9.74-26.34,19-52.86a2.44,2.44,0,0,0,.14-1,2.34,2.34,0,0,0-1.35-3.28l-33.38-12.07A2.52,2.52,0,0,0,723.25,659.18Zm15.08,62.39-28.12-10.8c5.71-16.24,11.61-32.42,17.31-48.67L756,672.39Q747.37,697.05,738.33,721.57Z"/></g><g id="Watch"><path class="cls-1" d="M793.37,787.06a18.48,18.48,0,0,0-2.67.74c-.78-1.74-1.55-3.47-2.33-5.2a2.52,2.52,0,0,0-3.42-.9,2.57,2.57,0,0,0-.9,3.42l3,6.68a2,2,0,0,0,1.2,1A2.72,2.72,0,0,0,791,793a18.39,18.39,0,0,1,3.7-1.12,2.5,2.5,0,1,0-1.33-4.82Z"/><path class="cls-1" d="M838.13,743.42c-2.88-3-7-2.51-10.25-.36-4.88,3.24-9,8.09-13.31,12.08a2.32,2.32,0,0,0-.76,1.38,2.37,2.37,0,0,0-1,.69c-4.9,5.38-10,10.45-15.4,15.32a2.49,2.49,0,0,0-.66.94,34.07,34.07,0,0,0-14.39-.74,2,2,0,0,0-1.72,2.72c-6.51,5.06-11.34,13.71-9.38,21.95a12.28,12.28,0,0,0,.84,2.34A212.48,212.48,0,0,1,744,827a2.08,2.08,0,0,0-.83,1.39,7.09,7.09,0,0,0-.35,9.18c2.61,3.41,7.51,3.64,11.21,2.11,5.62-2.32,10-8.18,14.21-12.34L785,810.85a2.24,2.24,0,0,0,.69-2.07,21.66,21.66,0,0,0,10.72-.4c9-3,14-13,12.52-22.23a2.32,2.32,0,0,0,.25-.21c5.52-5.62,11.22-11,17-16.38a2.14,2.14,0,0,0,.76-1.9,2.53,2.53,0,0,0,.75-.47C833.25,762.22,846,751.64,838.13,743.42Zm-18.81,25.69q-2.66-2.94-5.54-5.67c.77-.81,1.54-1.63,2.3-2.46q2.86,2.92,5.8,5.76Zm-53.89,54c-2.55,2.52-5.08,5.07-7.66,7.56a23.67,23.67,0,0,1-4.49,3.81l-2.15.94q-4.47,1.42-3.88-4a2.21,2.21,0,0,0,.76-1.26,211.37,211.37,0,0,0,27.14-26.37,19.79,19.79,0,0,0,6.11,3.69ZM793.55,804c-6.64,1.51-17.49-2.29-17.63-10.2-.13-6.84,4.74-13,10.46-16.19a2.23,2.23,0,0,0,.51-.37c7.44-.29,16.43,2.18,17.21,10.53C804.76,794.86,800.81,802.33,793.55,804Zm13.58-23.09a14.91,14.91,0,0,0-5.59-5.42q4.51-4.11,8.78-8.44c1.85,1.77,3.65,3.6,5.37,5.5Q811.35,776.65,807.13,780.9Zm17.93-18q-2.8-2.72-5.54-5.51l5.51-5.14c1.15-1.07,2.27-2.2,3.46-3.23,1.9-1.65,3.06-3.24,5.4-1.76C839.19,750.57,829,759.41,825.06,762.86Z"/><path class="cls-1" d="M772.89,808.83c-3,0-3,5,0,5S775.89,808.83,772.89,808.83Z"/><path class="cls-1" d="M765.89,815.71c-3,0-3,5,0,5S768.89,815.71,765.89,815.71Z"/></g><g id="Mouse_and_Mousepad" data-name="Mouse and Mousepad"><path class="cls-1" d="M546.15,713a1.78,1.78,0,0,0-2-1.4,79.24,79.24,0,0,0-20.64,4,2.06,2.06,0,0,0-1.31,1.26,2.1,2.1,0,0,0-.18,1.36l2.34,13.35c.59,3.35.82,7.16,2.36,10.25,2.64,5.31,9.1,6.5,14.5,5.48,16.47-3.14,9-24,5-34.17C546.21,713.14,546.17,713.09,546.15,713Zm-6,30.22c-3,.53-7.16.25-9.11-2.45-1.22-1.69-1.41-4.14-1.76-6.12q-1.38-7.75-2.73-15.51c2-.62,3.92-1.14,5.91-1.58.7,3.19,1.45,6.36,2.3,9.51.71,2.65,4.82,1.53,4.11-1.13-.82-3.05-1.55-6.11-2.22-9.19,2-.34,4.11-.58,6.18-.76C546.14,724.45,552.4,741.11,540.11,743.25Z"/><path class="cls-1" d="M564.25,738.29c-.3-5.66-.69-11.32-.91-17-.16-3.92,0-7.84-.49-11.73-.38-2.8-.91-6-3.19-7.93-2.68-2.25-6.4-1.8-9.65-2.14-8.39-.17-16.78-.06-25.18,0-7.51.07-16.15-1.47-23.11,1.94-6.66,3.26-4.93,13.4-5.2,19.54a264.28,264.28,0,0,0,0,29.52c.47,7.1,3.88,9.34,10.8,9.81,9.78.68,19.74.37,29.54.23q6.69-.09,13.38-.32c3.24-.11,8.18.6,11-1.38C566.72,755.11,564.54,743.7,564.25,738.29Zm-4,11.35c-.17,3,0,5.37-3.35,6.09-3.1.67-6.86.27-10,.36-3.91.11-7.81.19-11.72.24q-10.46.12-20.92-.06c-3.13-.06-7.46.45-10.47-.66-3.87-1.42-3.13-6.61-3.25-10.14-.26-7.31-.13-14.63.17-21.93.14-3.66.33-7.32.52-11,.07-1.31-.27-3.85.35-5,1.12-2.08,4-3.2,6.23-3.62,3.68-.7,7.89-.11,11.65-.11,3.1,0,6.21,0,9.31-.08,7.09-.08,14.18-.12,21.27,0,2.88.31,6.49-.35,7.89,2.82,1.11,2.52,1,5.89,1.07,8.6.12,6.58.48,13.14.83,19.71.18,3.3.42,6.61.5,9.92C560.33,746.43,560.35,748,560.25,749.64Z"/></g><g id="Keyboard"><path class="cls-1" d="M464.37,695.81a2.58,2.58,0,0,0-1.79-2.24,2.19,2.19,0,0,0-2.06-1.07l-127.77,3.82a2.4,2.4,0,0,0-2.38,2.17,2.29,2.29,0,0,0-1.15,2.06q-.09,30.78,1.55,61.52a2.47,2.47,0,0,0,2.11,2.36,2.16,2.16,0,0,0,2.09,1.12q65-2.09,130-5.31a2.82,2.82,0,0,0,1-.23,2.32,2.32,0,0,0,2.91-2.37Q467.45,726.67,464.37,695.81Zm-130.14,5.46,125.3-3.74q2.85,28.83,4.14,57.77-64,3.15-128,5.23Q334.16,730.92,334.23,701.27Z"/><path class="cls-1" d="M341.17,709.89l3.57-.1a2.5,2.5,0,0,0,0-5l-3.57.1a2.5,2.5,0,1,0,0,5Z"/><path class="cls-1" d="M355.15,709.48l2.84-.13a2.5,2.5,0,1,0,0-5l-2.84.13a2.5,2.5,0,0,0,0,5Z"/><path class="cls-1" d="M367.14,709h2.42a2.5,2.5,0,0,0,0-5h-2.42a2.5,2.5,0,0,0,0,5Z"/><path class="cls-1" d="M378.5,708.86l3.15-.13a2.5,2.5,0,1,0,0-5l-3.15.13a2.5,2.5,0,0,0,0,5Z"/><path class="cls-1" d="M391.85,708.61l2.74-.2a2.5,2.5,0,1,0,0-5l-2.74.2a2.5,2.5,0,0,0,0,5Z"/><path class="cls-1" d="M402.9,708.45l3.05-.32a2.5,2.5,0,0,0,0-5l-3.05.32a2.55,2.55,0,0,0-2.5,2.5A2.51,2.51,0,0,0,402.9,708.45Z"/><path class="cls-1" d="M415.51,708l2.63-.28a2.71,2.71,0,0,0,1.77-.73,2.5,2.5,0,0,0-1.77-4.27l-2.63.28a2.71,2.71,0,0,0-1.77.73,2.57,2.57,0,0,0-.73,1.77A2.52,2.52,0,0,0,415.51,708Z"/><path class="cls-1" d="M426.45,702.48a2.5,2.5,0,0,0,0,5,33.84,33.84,0,0,0,4-.44,2.51,2.51,0,0,0,1.75-3.08,2.57,2.57,0,0,0-3.08-1.74"/><path class="cls-1" d="M438.85,706.9a19.29,19.29,0,0,1,2.74-.06,2.51,2.51,0,0,0,2.5-2.5,2.56,2.56,0,0,0-2.5-2.5,19.29,19.29,0,0,0-2.74.06,2.5,2.5,0,0,0,0,5Z"/><path class="cls-1" d="M450.32,706.43c1.5-.16,3-.28,4.52-.34a2.55,2.55,0,0,0,2.5-2.5,2.53,2.53,0,0,0-2.5-2.5c-1.51.06-3,.18-4.52.34a2.57,2.57,0,0,0-2.5,2.5A2.51,2.51,0,0,0,450.32,706.43Z"/><path class="cls-1" d="M341,719.87c3,0,3-5,0-5S338,719.87,341,719.87Z"/><path class="cls-1" d="M350,718.82c3,0,3-5,0-5S347,718.82,350,718.82Z"/><path class="cls-1" d="M360,718.51c4,0,4-5,0-5C357,713.51,357,718.51,360,718.51Z"/><path class="cls-1" d="M371,718.3c3,0,3-5,0-5S368,718.3,371,718.3Z"/><path class="cls-1" d="M381,712.77c-3,0-3,5,0,5S384,712.77,381,712.77Z"/><path class="cls-1" d="M391,717.56c3,0,3-5,0-5S388,717.56,391,717.56Z"/><path class="cls-1" d="M401,716.72c3,0,3-5,0-5S398,716.72,401,716.72Z"/><path class="cls-1" d="M411,711.82c-3,0-3,5,0,5C415,716.82,415,711.82,411,711.82Z"/><path class="cls-1" d="M422,716.3c3,0,3-5,0-5S419,716.3,422,716.3Z"/><path class="cls-1" d="M432,715.56c3,0,3-5,0-5S429,715.56,432,715.56Z"/><path class="cls-1" d="M441,710.25c-3,0-3,5,0,5C445,715.25,445,710.25,441,710.25Z"/><path class="cls-1" d="M457.55,712.25a2.52,2.52,0,0,0-2.5-2.5l-4.52.2a2.5,2.5,0,0,0,0,5l4.52-.2A2.55,2.55,0,0,0,457.55,712.25Z"/><path class="cls-1" d="M340,728.66l6.52-.28c3.21-.13,3.22-5.13,0-5l-6.52.28C336.8,723.79,336.79,728.79,340,728.66Z"/><path class="cls-1" d="M339.7,737.87c3.36-.17,6.73-.35,10.09-.57,3.19-.2,3.22-5.2,0-5s-6.73.4-10.09.57C336.49,733,336.47,738,339.7,737.87Z"/><path class="cls-1" d="M353.05,741.48q-6.72.62-13.46.63c-3.22,0-3.22,5,0,5q6.75,0,13.46-.63C356.23,746.2,356.26,741.19,353.05,741.48Z"/><path class="cls-1" d="M341,751.26c-3,0-3,5,0,5S344,751.26,341,751.26Z"/><path class="cls-1" d="M350,750.63c-3,0-3,5,0,5S353,750.63,350,750.63Z"/><path class="cls-1" d="M358,750c-3,0-3,5,0,5S361,750,358,750Z"/><path class="cls-1" d="M368.61,750H366a2.5,2.5,0,0,0,0,5h2.63a2.5,2.5,0,0,0,0-5Z"/><path class="cls-1" d="M409.51,752.49c3.2-.18,3.22-5.18,0-5l-31.95,1.77c-3.2.17-3.22,5.17,0,5"/><path class="cls-1" d="M423.4,746.89a45.29,45.29,0,0,1-4.94.27c-3.22,0-3.23,5,0,5a45.29,45.29,0,0,0,4.94-.27,2.57,2.57,0,0,0,2.5-2.5A2.51,2.51,0,0,0,423.4,746.89Z"/><path class="cls-1" d="M432,746.74c-3,0-3,5,0,5S435,746.74,432,746.74Z"/><path class="cls-1" d="M441,746.53c-3,0-3,5,0,5S444,746.53,441,746.53Z"/><path class="cls-1" d="M449,746c-3,0-3,5,0,5C453,751,453,746,449,746Z"/><path class="cls-1" d="M458,746c-4,0-4,5,0,5C461,751,461,746,458,746Z"/><path class="cls-1" d="M356,722.13c-3,0-3,5,0,5S359,722.13,356,722.13Z"/><path class="cls-1" d="M364,726.92c3,0,3-5,0-5S361,726.92,364,726.92Z"/><path class="cls-1" d="M373,726.5c3,0,3-5,0-5C369,721.5,369,726.5,373,726.5Z"/><path class="cls-1" d="M381,721.08c-4,0-4,5,0,5C384,726.08,384,721.08,381,721.08Z"/><path class="cls-1" d="M390,725.87c3,0,3-5,0-5C386,720.87,386,725.87,390,725.87Z"/><path class="cls-1" d="M399,725.55c3,0,3-5,0-5S396,725.55,399,725.55Z"/><path class="cls-1" d="M409,720.45c-4,0-4,5,0,5C412,725.45,412,720.45,409,720.45Z"/><path class="cls-1" d="M418,720c-3,0-3,5,0,5S421,720,418,720Z"/><path class="cls-1" d="M427,724.29c3,0,3-5,0-5S424,724.29,427,724.29Z"/><path class="cls-1" d="M436,723.87c3,0,3-5,0-5S433,723.87,436,723.87Z"/><path class="cls-1" d="M445,723.34c3,0,3-5,0-5S442,723.34,445,723.34Z"/><path class="cls-1" d="M454,718c-3,0-3,5,0,5S457,718,454,718Z"/><path class="cls-1" d="M359,736.49c3,0,3-5,0-5S356,736.49,359,736.49Z"/><path class="cls-1" d="M368,731.28c-3,0-3,5,0,5S371,731.28,368,731.28Z"/><path class="cls-1" d="M377,731c-4,0-4,5,0,5C380,736,380,731,377,731Z"/><path class="cls-1" d="M385,734.7c4,0,4-5,0-5C382,729.7,382,734.7,385,734.7Z"/><path class="cls-1" d="M395,729.39c-4,0-4,5,0,5C398,734.39,398,729.39,395,729.39Z"/><path class="cls-1" d="M403,729.18c-3,0-3,5,0,5S406,729.18,403,729.18Z"/><path class="cls-1" d="M411,728.86c-3,0-3,5,0,5S414,728.86,411,728.86Z"/><path class="cls-1" d="M420,733.44c3,0,3-5,0-5S417,733.44,420,733.44Z"/><path class="cls-1" d="M429,727.6c-3,0-3,5,0,5S432,727.6,429,727.6Z"/><path class="cls-1" d="M438,727.07c-3,0-3,5,0,5S441,727.07,438,727.07Z"/><path class="cls-1" d="M454,725.9,447,726c-3.21,0-3.22,5,0,5l7.05-.11C457.21,730.85,457.22,725.85,454,725.9Z"/><path class="cls-1" d="M362,740.22c-3,0-3,5,0,5S365,740.22,362,740.22Z"/><path class="cls-1" d="M371,740c-3,0-3,5,0,5S374,740,371,740Z"/><path class="cls-1" d="M380,739.69c-3,0-3,5,0,5C384,744.69,384,739.69,380,739.69Z"/><path class="cls-1" d="M389,738.74c-3,0-3,5,0,5S392,738.74,389,738.74Z"/><path class="cls-1" d="M399,743.32c4,0,4-5,0-5C396,738.32,396,743.32,399,743.32Z"/><path class="cls-1" d="M407,742.8c4,0,4-5,0-5C404,737.8,404,742.8,407,742.8Z"/><path class="cls-1" d="M416,737.38c-3,0-3,5,0,5S419,737.38,416,737.38Z"/><path class="cls-1" d="M426,736.43c-4,0-4,5,0,5C429,741.43,429,736.43,426,736.43Z"/><path class="cls-1" d="M435,736.12c-3,0-3,5,0,5S438,736.12,435,736.12Z"/><path class="cls-1" d="M455.05,735.16c-3.69,0-7.36.16-11,.46-3.18.25-3.21,5.26,0,5,3.68-.3,7.35-.45,11-.46C458.27,740.15,458.27,735.15,455.05,735.16Z"/></g><path id="Headphones" class="cls-1" d="M153.15,740.13c-1.34-5.47-2.81-12.86-7.23-16.81-4.08-3.64-8.79-1.69-13.47-.84a2.76,2.76,0,0,0,.14-2,75.32,75.32,0,0,0-3.5-10,28.91,28.91,0,0,0,3.18-1.85,3.78,3.78,0,0,0,1.64-2.22,2.85,2.85,0,0,0,.85-2.82c-5.36-25.37-35.27-35.68-58.19-29.35-20,5.53-45.87,30.21-35.94,53a2.69,2.69,0,0,0,3.29,1.64,3.52,3.52,0,0,0,1.47.54,4.93,4.93,0,0,0,.54,0,2,2,0,0,0,0,.43,71.79,71.79,0,0,0,2.19,15.51,4.37,4.37,0,0,0,.21.58c-3.6.68-7.06,2.13-8.77,5.68C37,757,40.28,764,41.92,769.15c1.94,6,3.16,13.62,6.42,19.08,3,5.06,8,3.52,12.79,2.69l0,.19a2.88,2.88,0,0,0,3.56,2.4,3.11,3.11,0,0,0,2.11.44c5.53-.69,12-2.57,13.21-8.9.56-3-.55-6.31-1.15-9.23-.88-4.29-1.73-8.58-2.65-12.86-1.33-6.18-2.39-15.07-7.53-19.47a12.75,12.75,0,0,0-14.79-1l0,0a63.17,63.17,0,0,1-1.67-12.1A3.45,3.45,0,0,0,51.9,729a20.65,20.65,0,0,0,2.35-.75,2.48,2.48,0,0,0,1.13-.94,3,3,0,0,0,2.94-2.84c1-13.39,10.53-25.62,23.84-28.71s27.34,3.83,34,15.44a3.25,3.25,0,0,0,.63.77,3.08,3.08,0,0,0,3.06,1.34,28.73,28.73,0,0,0,3.35-.65c0,.06,0,.11,0,.16a62.34,62.34,0,0,1,3.16,8.9l.06.16a3.81,3.81,0,0,0-.69.7c-4.61,1.58-10.35,1.69-12.1,7.18-.79,2.47-.05,4.85.52,7.28,1.11,4.7,2.39,9.36,3.77,14,1.72,5.79,3.25,15.13,7.63,19.69,4.78,5,11.8,2.9,17.33.68a2.64,2.64,0,0,0,1.57-3.53,2.79,2.79,0,0,0,.27-1c4.28-1.51,10.76-3.2,12-8.05C158.13,753.41,154.43,745.33,153.15,740.13Zm-97.22,45.4c-2-.55-3.33-4.35-4-6.09-1.38-3.32-2.26-7-3.37-10.4-.92-2.86-1.84-5.5-2.57-8.43-1.27-5.09,1.63-8.6,6.71-8.34h0c3,11,5.36,21.6,7.4,32.66C58.83,785.24,56.75,785.74,55.93,785.53Zm25-96C65.38,693.09,54,706.88,52.18,722.4a4.49,4.49,0,0,0-.8.21,11.19,11.19,0,0,1-5.56.53c-3.36-10,3.57-21.85,10.11-29a46.67,46.67,0,0,1,24-14.17c18.75-4.28,43.21,3.39,48.35,23.78a24.54,24.54,0,0,1-7.49,3C112.4,693.65,96.35,686.06,80.89,689.57Zm69.18,64.94c.29,3.84-3.17,5.06-6.55,6.15a226.65,226.65,0,0,0-10.06-31.9c4.23-.64,7.72-1.67,10.57,3.2,2.12,3.64,2.73,8.69,3.71,12.77C148.49,747.89,149.82,751.29,150.07,754.51Z"/><path id="Plant" class="cls-1" d="M243.3,479.77a2.19,2.19,0,0,0-2.3-1.68c-2.86.09-5.73.16-8.59.24a102.28,102.28,0,0,1,8.82-22.57,2.59,2.59,0,0,0-3-3.64,2.69,2.69,0,0,0-1.14-.07,22,22,0,0,0-11,5c1.07-8.12,4.18-15.74,7.61-23.24,1.2-2.61-2.16-4.92-3.82-3.23a2.36,2.36,0,0,0-.86.56,87,87,0,0,0-19.36,28.42,43,43,0,0,0-20.8-19.39,2.72,2.72,0,0,0-3.73,3,2.5,2.5,0,0,0,.61,1.4,61.92,61.92,0,0,1,9.91,16.5,15.85,15.85,0,0,0-11.43-3.22,2.6,2.6,0,0,0-1.31.55c-1.94.2-3.51,2.58-1.63,4.13,2.55,2.12,3.71,5.07,5,8q1.81,4.1,3.61,8.21h-5a2.35,2.35,0,0,0-2.4,2.63,2.19,2.19,0,0,0-.16,1.2,94.43,94.43,0,0,0,2.14,11.68,2.19,2.19,0,0,0,2.09,1.77,2.34,2.34,0,0,0,.66.1h1q2.56,14.31,5.82,28.46a2.26,2.26,0,0,0,3,1.69,2.66,2.66,0,0,0,.84.19,209.46,209.46,0,0,0,29-.33,2.52,2.52,0,0,0,1.63-.75,2.51,2.51,0,0,0,3.26-1.59,130.55,130.55,0,0,0,5.88-28.46l.57,0a2.42,2.42,0,0,0,1.59-.66,2.26,2.26,0,0,0,1.87-1.73,77.68,77.68,0,0,0,2.16-11.52A2,2,0,0,0,243.3,479.77Zm-6.17,10.64q-24.13,1.14-48.31.78c-.57-2.44-1-4.91-1.38-7.39q25.58.15,51.13-.64A66.38,66.38,0,0,1,237.13,490.41Zm-2.54-32.56a107.75,107.75,0,0,0-7.37,20.62c-3,.07-6,.11-9,.16C221.59,470.18,225.91,461.07,234.59,457.85ZM213,464.53a81,81,0,0,1,11-20.15,57.32,57.32,0,0,0-3.33,18.43c0,.06,0,.11,0,.16a63.52,63.52,0,0,0-6.33,12,44.43,44.43,0,0,0-2.12-9.37A2.62,2.62,0,0,0,213,464.53Zm-3.33,14.22h-2.07a40.55,40.55,0,0,0-5.5-11,2.24,2.24,0,0,0,.41-2.16,67.37,67.37,0,0,0-6.72-15.33A38.09,38.09,0,0,1,209.65,478.75Zm-14.52-.36c-2-4.67-3.78-10.65-6.78-15.26,6.63,1.69,11.57,9.22,14,15.67l-7,0A3.59,3.59,0,0,0,195.13,478.39Zm32.19,42.81a2.53,2.53,0,0,0-.48,0,210,210,0,0,1-28.38.36q-2.86-12.6-5.18-25.32,19.66.18,39.31-.63A124.92,124.92,0,0,1,227.32,521.2Z"/><text class="cls-2" transform="translate(117.3 73.63)">A <tspan class="cls-3" x="77.64" y="0">D</tspan><tspan class="cls-4" x="123.12" y="0">a</tspan><tspan class="cls-5" x="164.76" y="0">y In The Life</tspan></text><g id="Coffee"><path class="cls-1" d="M557.41,628.79c-2-10.89-10.33-17-20.69-16.79-.05-.84-.09-1.68-.14-2.52a2.39,2.39,0,0,0-1.19-2c-1.32-3.31-6-4.5-9.11-5.33-5.77-1.55-11.71-1-17.61-1.07a60.16,60.16,0,0,0-7.23.52c0-2.14,1.3-4.33,2-6.64a8.92,8.92,0,0,0-.62-7.32c-1.57-2.81-5.89-.29-4.31,2.52,1.74,3.12-2.12,7.56-2.23,10.9a9.65,9.65,0,0,0,.07,1.43,59.48,59.48,0,0,0-6.84,1.92c-3.17,1.09-7.51,2.69-7.39,6.82a1.36,1.36,0,0,0,0,.2,2.46,2.46,0,0,0-.19,1.05q.34,16.53.71,33.06c.19,8.16,2.55,13.64,10.76,16.43,8.44,2.86,18.55,1.48,27.16.23,7.11-1,15.16-2.55,16.67-10.46a2.33,2.33,0,0,0,.82-1.82c0-.82,0-1.64,0-2.45C548.76,646.91,559.76,641.44,557.41,628.79Zm-20-3.29c3,.07,6.06,1.67,6.36,5s-3,4.06-6,4.13C537.74,631.57,537.6,628.53,537.45,625.5Zm-39.24-18.41a11.07,11.07,0,0,0,1.31,1.52c1.86,1.85,4.56-.16,4.24-2.2,2.41-.23,4.3-.33,4.91-.34,3.22.06,6.43-.1,9.64,0,2.22.06,8,.1,9.73,1.9,1.33,1.38.89,2.3-.33,2.92a2.56,2.56,0,0,0-.86-.29,109.31,109.31,0,0,0-35,.47,2.1,2.1,0,0,0-1.54,1c-1.39-.19-2.28-.46-2.32-.83C487.77,609.2,493,607.89,498.21,607.09Zm34.22,43.75c-.85,7.06-15.85,7-20.76,7.33-6.59.46-15.18,1.26-20.75-3-5.22-4-3.35-14.4-3.47-20.31l-.4-18.7a30.55,30.55,0,0,0,3.24.62c6.32.92,12.86.74,19.23.68,4,0,16.1.76,22.37-2.43.64,11.45,1.26,22.9,1.2,34.37A2.6,2.6,0,0,0,532.43,650.84Zm5.61-8.38c0-1,0-2,0-2.92,5.4-.33,11.12-2.51,10.84-9-.26-6-5.9-10.24-11.64-10-.06-1.17-.13-2.33-.19-3.49,6.92,0,12.17,3,14.8,10.2C555.58,637.56,546.77,642,538,642.46Z"/><path class="cls-1" d="M514.36,594.56c.68,3.15,5.5,1.82,4.82-1.32-1.08-4.94,2.91-8.52,3.2-13.33a18.13,18.13,0,0,0-3.62-11.28c-1.81-2.63-6.14-.13-4.31,2.53,3.37,4.9,3.38,8.75.88,14A13.82,13.82,0,0,0,514.36,594.56Z"/></g><path class="cls-6" d="M586.27,659q-9.71,9.66-19.4,19.33l-16.33-16.57q-.09-5.21-.16-10.41l8.52-8.44,10.91-.26Z"/><path class="cls-7" d="M517.61,603.39c.72-1,6.27-8.6,14.69-8.49,9.37.12,16.65,9.71,17.39,17.39.47,4.84-1.91,6.11-2.05,15.94-.08,5.33.57,8.16,1.34,10.32a24.59,24.59,0,0,0,5,8.23"/><path class="cls-8" d="M555,659.19a9.08,9.08,0,0,0,11,1.42"/><path class="cls-8" d="M559.06,658.25a7.16,7.16,0,0,1,3.39-3.71c1.37-.64,2.69-.61,7.92.26,2.36.39,4.41.77,6,1.08a10.41,10.41,0,0,1-.76,3.07,10.66,10.66,0,0,1-3.11,4.11c-3.63,2.81-8.31,1.66-8.91,1.5"/></g></svg>