<svg id="assets" xmlns="http://www.w3.org/2000/svg" viewBox="0 0 864 864"><defs><style>.cls-1,.cls-2{fill:#231f20;}.cls-2{font-size:60px;font-family:NexaRustSans-Black, Nexa Rust Sans;}.cls-3{letter-spacing:-0.03em;}.cls-4{letter-spacing:-0.2em;}.cls-5{letter-spacing:0em;}</style></defs><title>main</title><g id="main"><g id="Computer"><path class="cls-1" d="M568.64,495.89q-2.4-84.3-4.81-168.6c-.12-4.19-4.51-5.57-7.36-4.16a4.46,4.46,0,0,0-3.58-1.56l-251.34,1.26a4.48,4.48,0,0,0-4.48,3.36,4.7,4.7,0,0,0-1,3Q294.7,414.05,296,499a4.72,4.72,0,0,0,.87,2.76,4.77,4.77,0,0,0,4.67,4.6q53,2.13,105.94,2.19c0,.09,0,.18,0,.28.13,2.65,1.1,7.12-.52,9.34-1.34,1.84-5.76,3.58-7.75,4.88-5.27,3.44-10.48,7-15.9,10.18l-.25.19a2.07,2.07,0,0,0-.24.17,4.45,4.45,0,0,0-1.69,4.78,4.4,4.4,0,0,0,3.75,3.88,4.17,4.17,0,0,0,1.5.07c32.63-.49,65.26.51,97.89,0,5.7-.09,6.22-8.12,1.56-9.53a4.84,4.84,0,0,0-1.28-1.11l-15.18-9.14c-2.06-1.25-4.81-2.4-6.51-4.13-2.52-2.53-2.08-5.73-1.81-9a4.91,4.91,0,0,0-.06-1.29q51.19-.92,102.35-3.69a5,5,0,0,0,4.64-5.88A4.53,4.53,0,0,0,568.64,495.89ZM554.18,331.15,558,464.59q-126.3,2.63-252.62,1-.6-66.51.39-133l247.13-1.24A5.74,5.74,0,0,0,554.18,331.15ZM305.72,496.7c-.11-7.12-.16-14.24-.24-21.36q126.39,1.64,252.79-1,.29,10.26.58,20.53Q432.39,501.59,305.72,496.7Zm152.5,30.39c2.78,2,5.72,3.8,8.7,5.57-21.43,0-42.86-.31-64.3-.27,2.32-1.51,4.64-3,7-4.47,2.86-1.77,5.75-3.28,7.1-6.51,1.57-3.77.69-8.69.5-12.62a2.72,2.72,0,0,0,0-.3q17.16,0,34.32-.27a5.92,5.92,0,0,0-.23,1.17C450.65,516.66,452,522.67,458.22,527.09Z"/></g><path id="Glasses" class="cls-1" d="M165.57,135.13a2.44,2.44,0,0,0-3.12-1.65,2.29,2.29,0,0,0-1.75-.13l-.46.13a2.62,2.62,0,0,0-.56-.38c-11.75-6-24.12-12.13-36.78-16-4.45-1.36-9.64-1.75-13.41,1.51a8.29,8.29,0,0,0-1.9,10.39c1.45,2.87,5.77.34,4.32-2.53-2.1-4.16,3-5.55,5.73-5.42a23.59,23.59,0,0,1,6.62,1.81c3.91,1.41,7.78,3,11.62,4.61,5.91,2.49,11.73,5.19,17.47,8l-20.17,5.93a2.55,2.55,0,0,0-.88,4.36c0,1.4,0,3,.1,4.67a2.59,2.59,0,0,0-.94.37,14.76,14.76,0,0,1-7,2.39c-.23-1.26-.49-2.45-.75-3.46a2.27,2.27,0,0,0-1.35-1.6c.65-1.56,0-3.62-2.13-3.35a315.75,315.75,0,0,0-32.45,5.77,2.15,2.15,0,0,0-1.61,1.32q-9.58-3.76-19.26-7.31c-6.1-2.22-12.65-5.39-19.15-6.16-10.15-1.22-13.27,8.42-8.92,16.22,1.56,2.81,5.88.29,4.31-2.53-1.26-2.27-2.86-6.22.12-8.22,1.62-1.1,4.18-.54,5.93-.15,4,.9,8,2.64,11.83,4q12.6,4.5,25,9.43c-.46,5.47-.35,11.5,4,15.51s10.77,2.81,16,1.28c3.9-1.16,7.77-2.48,11.63-3.77,1.88-.63,3.77-1,5.08-2.62,1.94-2.31,2.44-5.87,2.3-9.43a20.17,20.17,0,0,0,8-2.43,10.74,10.74,0,0,0,2.68,5.53c4.08,4,11.14,1.73,15.65,0s12.08-3.53,14.48-8.29C168.43,147.73,167.14,140.44,165.57,135.13Zm-46.88,29c-2,2.29-8.41,3.25-11.39,4.2-4.23,1.36-9.54,3.55-13.69.83-3.8-2.5-2.76-9.33-2.41-13A2.25,2.25,0,0,0,91,155q13.81-3.12,27.86-5a2.41,2.41,0,0,0,.06,1.09C119.75,154.33,121.16,161.26,118.69,164.15Zm43.14-15c-1,3.67-5.07,4.4-8.28,5.76-2.39,1-9.4,4.85-12.2,3.54-4.46-2.1-3.94-8.83-4.06-13l24-7.06C162.16,141.84,162.77,145.84,161.83,149.16Z"/><g id="Phone"><path class="cls-1" d="M698.71,167.23a6,6,0,0,0-5.64.15,5.54,5.54,0,0,0-3.26,4.44,5.81,5.81,0,0,0,2.81,5.17,6.31,6.31,0,0,0,6.4.32,5.47,5.47,0,0,0,2.61-5.73C701.36,169.76,701,168.43,698.71,167.23Z"/><path class="cls-1" d="M720.75,192.72q7.89-22,15.74-44.12c4.72-13.28,11.2-27,13.14-41.08a2.11,2.11,0,0,0-1-2.23,2.36,2.36,0,0,0-1.36-1.34q-24-9.78-48.63-17.71a2.4,2.4,0,0,0-2.76.87,2.36,2.36,0,0,0-3.1,1.42q-15.32,40.71-29.57,81.82a2.78,2.78,0,0,0-.11,1.57,2.53,2.53,0,0,0,1.06,3.85L716.2,195a2.38,2.38,0,0,0,2.54-.63A2.42,2.42,0,0,0,720.75,192.72Zm23.71-84.51c-1.07,6.52-3.5,12.71-5.68,18.92-2.54,7.21-5.13,14.53-7.68,21.73-4.84,13.62-9.56,26.83-14.62,40.95l-48.52-18c9.52-27.4,19.12-54,29.17-80.71C713.1,96.28,728.91,101.9,744.46,108.21Z"/><path class="cls-1" d="M699.31,101c-6.06,17.31-12.37,34.53-18.43,51.84,0,.08,0,.15-.06.22a2.41,2.41,0,0,0,1.35,3.31L715,169a2.25,2.25,0,0,0,2.06-.15,2.33,2.33,0,0,0,1.15-1.33q9.74-26.34,19-52.86a2.55,2.55,0,0,0,.15-1,2.36,2.36,0,0,0-1.35-3.28L702.61,98.28A2.52,2.52,0,0,0,699.31,101Zm15.08,62.38-28.12-10.79C692,136.37,697.88,120.2,703.59,104l28.46,10.29Q723.43,138.9,714.39,163.41Z"/></g><g id="Watch"><path class="cls-1" d="M785.27,526.15a22,22,0,0,0-2.67.74l-2.33-5.19a2.52,2.52,0,0,0-3.42-.9,2.56,2.56,0,0,0-.9,3.42l3,6.68a2,2,0,0,0,1.19,1,2.74,2.74,0,0,0,2.76.16,17.77,17.77,0,0,1,3.7-1.12,2.53,2.53,0,0,0,1.75-3.08A2.56,2.56,0,0,0,785.27,526.15Z"/><path class="cls-1" d="M830,482.51c-2.88-3-7-2.5-10.25-.35-4.88,3.24-9,8.09-13.31,12.07a2.27,2.27,0,0,0-.75,1.39,2.34,2.34,0,0,0-1.05.69c-4.89,5.37-10,10.45-15.4,15.32a2.35,2.35,0,0,0-.65.94,34.11,34.11,0,0,0-14.4-.74,2,2,0,0,0-1.72,2.72c-6.51,5.06-11.34,13.71-9.38,22a11.66,11.66,0,0,0,.85,2.34,211.24,211.24,0,0,1-28,27.26,2.14,2.14,0,0,0-.83,1.4,7.09,7.09,0,0,0-.35,9.18c2.62,3.41,7.51,3.64,11.21,2.11,5.62-2.33,10-8.19,14.21-12.34L776.88,550a2.26,2.26,0,0,0,.69-2.08,21.55,21.55,0,0,0,10.72-.39c9-3,14-13,12.52-22.23.08-.07.17-.13.25-.21,5.52-5.62,11.22-11,17-16.38a2.2,2.2,0,0,0,.76-1.91,2.62,2.62,0,0,0,.75-.46C825.16,501.32,837.9,490.73,830,482.51Zm-18.8,25.7c-1.77-2-3.62-3.85-5.54-5.67.76-.82,1.53-1.63,2.29-2.46q2.87,2.91,5.8,5.76Zm-53.9,54c-2.55,2.52-5.08,5.06-7.66,7.56a23.36,23.36,0,0,1-4.49,3.81l-2.14.94c-3,.94-4.28-.39-3.89-4a2.29,2.29,0,0,0,.77-1.26,211.35,211.35,0,0,0,27.13-26.38,20.06,20.06,0,0,0,6.11,3.7Zm28.12-19.14c-6.63,1.51-17.49-2.29-17.63-10.2-.13-6.85,4.74-13,10.47-16.19a3.34,3.34,0,0,0,.51-.37c7.43-.3,16.43,2.17,17.2,10.53C796.66,534,792.71,541.43,785.45,543.09ZM799,520a14.91,14.91,0,0,0-5.59-5.42c3-2.74,5.93-5.55,8.78-8.44q2.79,2.64,5.37,5.5Q803.26,515.75,799,520ZM817,502c-1.87-1.82-3.72-3.65-5.55-5.51l5.51-5.14c1.15-1.08,2.27-2.2,3.46-3.23,1.9-1.65,3.06-3.24,5.4-1.77C831.1,489.67,820.93,498.51,817,502Z"/><path class="cls-1" d="M764.79,547.92c-3,0-3,5,0,5S767.79,547.92,764.79,547.92Z"/><path class="cls-1" d="M757.79,554.81c-3,0-3,5,0,5S760.79,554.81,757.79,554.81Z"/></g><path id="Notebook" class="cls-1" d="M839.88,757.57c0-9.76,3.51-28-10.23-29.75-8.39-1.05-17.22-.6-25.67-.71q-14-.2-28-.06a10.72,10.72,0,0,0-3.75,5.25q-1.31,44.67-.8,89.34a2.78,2.78,0,0,0,2.68,2.82l23.67,16.07c5.65,3.83,11.93,9,19.24,7.86,6-.88,9.15-5,9.81-10.6,4.4-.12,8.9-1.27,11.29-5.35,3.08-5.28,1.41-14.06,1.47-19.88Q839.87,785.07,839.88,757.57Zm-16-4.3-.17-.42C821,747,813.91,744.63,808,742.3c3.82.53,8.36.88,11.46,2.36C823.32,746.52,823.91,749.72,823.9,753.27Zm-8.1,89.26c-6.14,1.32-15-7-19.65-10.21L777.3,819.53q-.43-42,.74-84L796,743.48l10.59,4.68c3,1.32,7,2.38,9.56,4.43,5.52,4.44,3.6,15.85,3.73,22.09l.45,23q.24,11.5.46,23,.12,5.76.23,11.51c0,.64,0,1.28,0,1.92a4.17,4.17,0,0,0,0,.79C820.88,838.44,820.11,841.61,815.8,842.53Zm18.17-85q0,19.89-.16,39.78-.07,9.95-.2,19.89c0,3.08.18,6.29-.12,9.36a5.16,5.16,0,0,1-4.51,5c0-.11,0-.22,0-.34q.5-34.78.63-69.58c0-6.71,2.29-17.77-5.06-21.66-3.61-1.92-8.87-2.14-12.84-2.93l-18.49-3.66a2.81,2.81,0,0,0-.49-.05,3.44,3.44,0,0,0-.64-.31l-.51-.19q12,0,24,.31c3.5.08,7,.17,10.5.29,3.78.14,6.56.74,7.49,4.79C835,744.25,834,751.5,834,757.57Z"/><g id="Mouse_and_Mousepad" data-name="Mouse and Mousepad"><path class="cls-1" d="M546.15,713a1.78,1.78,0,0,0-2-1.4,79.24,79.24,0,0,0-20.64,4,2.06,2.06,0,0,0-1.31,1.26,2.1,2.1,0,0,0-.18,1.36l2.34,13.35c.59,3.35.82,7.16,2.36,10.25,2.64,5.31,9.1,6.5,14.5,5.48,16.47-3.14,9-24,5-34.17C546.21,713.14,546.17,713.09,546.15,713Zm-6,30.22c-3,.53-7.16.25-9.11-2.45-1.22-1.69-1.41-4.14-1.76-6.12q-1.38-7.75-2.73-15.51c2-.62,3.92-1.14,5.91-1.58.7,3.19,1.45,6.36,2.3,9.51.71,2.65,4.82,1.53,4.11-1.13-.82-3.05-1.55-6.11-2.22-9.19,2-.34,4.11-.58,6.18-.76C546.14,724.45,552.4,741.11,540.11,743.25Z"/><path class="cls-1" d="M564.25,738.29c-.3-5.66-.69-11.32-.91-17-.16-3.92,0-7.84-.49-11.73-.38-2.8-.91-6-3.19-7.93-2.68-2.25-6.4-1.8-9.65-2.14-8.39-.17-16.78-.06-25.18,0-7.51.07-16.15-1.47-23.11,1.94-6.66,3.26-4.93,13.4-5.2,19.54a264.28,264.28,0,0,0,0,29.52c.47,7.1,3.88,9.34,10.8,9.81,9.78.68,19.74.37,29.54.23q6.69-.09,13.38-.32c3.24-.11,8.18.6,11-1.38C566.72,755.11,564.54,743.7,564.25,738.29Zm-4,11.35c-.17,3,0,5.37-3.35,6.09-3.1.67-6.86.27-10,.36-3.91.11-7.81.19-11.72.24q-10.46.12-20.92-.06c-3.13-.06-7.46.45-10.47-.66-3.87-1.42-3.13-6.61-3.25-10.14-.26-7.31-.13-14.63.17-21.93.14-3.66.33-7.32.52-11,.07-1.31-.27-3.85.35-5,1.12-2.08,4-3.2,6.23-3.62,3.68-.7,7.89-.11,11.65-.11,3.1,0,6.21,0,9.31-.08,7.09-.08,14.18-.12,21.27,0,2.88.31,6.49-.35,7.89,2.82,1.11,2.52,1,5.89,1.07,8.6.12,6.58.48,13.14.83,19.71.18,3.3.42,6.61.5,9.92C560.33,746.43,560.35,748,560.25,749.64Z"/></g><g id="Keyboard"><path class="cls-1" d="M464.37,695.81a2.58,2.58,0,0,0-1.79-2.24,2.19,2.19,0,0,0-2.06-1.07l-127.77,3.82a2.4,2.4,0,0,0-2.38,2.17,2.29,2.29,0,0,0-1.15,2.06q-.09,30.78,1.55,61.52a2.47,2.47,0,0,0,2.11,2.36,2.16,2.16,0,0,0,2.09,1.12q65-2.09,130-5.31a2.82,2.82,0,0,0,1-.23,2.32,2.32,0,0,0,2.91-2.37Q467.45,726.67,464.37,695.81Zm-130.14,5.46,125.3-3.74q2.85,28.83,4.14,57.77-64,3.15-128,5.23Q334.16,730.92,334.23,701.27Z"/><path class="cls-1" d="M341.17,709.89l3.57-.1a2.5,2.5,0,0,0,0-5l-3.57.1a2.5,2.5,0,1,0,0,5Z"/><path class="cls-1" d="M355.15,709.48l2.84-.13a2.5,2.5,0,1,0,0-5l-2.84.13a2.5,2.5,0,0,0,0,5Z"/><path class="cls-1" d="M367.14,709h2.42a2.5,2.5,0,0,0,0-5h-2.42a2.5,2.5,0,0,0,0,5Z"/><path class="cls-1" d="M378.5,708.86l3.15-.13a2.5,2.5,0,1,0,0-5l-3.15.13a2.5,2.5,0,0,0,0,5Z"/><path class="cls-1" d="M391.85,708.61l2.74-.2a2.5,2.5,0,1,0,0-5l-2.74.2a2.5,2.5,0,0,0,0,5Z"/><path class="cls-1" d="M402.9,708.45l3.05-.32a2.5,2.5,0,0,0,0-5l-3.05.32a2.55,2.55,0,0,0-2.5,2.5A2.51,2.51,0,0,0,402.9,708.45Z"/><path class="cls-1" d="M415.51,708l2.63-.28a2.71,2.71,0,0,0,1.77-.73,2.5,2.5,0,0,0-1.77-4.27l-2.63.28a2.71,2.71,0,0,0-1.77.73,2.57,2.57,0,0,0-.73,1.77A2.52,2.52,0,0,0,415.51,708Z"/><path class="cls-1" d="M426.45,702.48a2.5,2.5,0,0,0,0,5,33.84,33.84,0,0,0,4-.44,2.51,2.51,0,0,0,1.75-3.08,2.57,2.57,0,0,0-3.08-1.74"/><path class="cls-1" d="M438.85,706.9a19.29,19.29,0,0,1,2.74-.06,2.51,2.51,0,0,0,2.5-2.5,2.56,2.56,0,0,0-2.5-2.5,19.29,19.29,0,0,0-2.74.06,2.5,2.5,0,0,0,0,5Z"/><path class="cls-1" d="M450.32,706.43c1.5-.16,3-.28,4.52-.34a2.55,2.55,0,0,0,2.5-2.5,2.53,2.53,0,0,0-2.5-2.5c-1.51.06-3,.18-4.52.34a2.57,2.57,0,0,0-2.5,2.5A2.51,2.51,0,0,0,450.32,706.43Z"/><path class="cls-1" d="M341,719.87c3,0,3-5,0-5S338,719.87,341,719.87Z"/><path class="cls-1" d="M350,718.82c3,0,3-5,0-5S347,718.82,350,718.82Z"/><path class="cls-1" d="M360,718.51c4,0,4-5,0-5C357,713.51,357,718.51,360,718.51Z"/><path class="cls-1" d="M371,718.3c3,0,3-5,0-5S368,718.3,371,718.3Z"/><path class="cls-1" d="M381,712.77c-3,0-3,5,0,5S384,712.77,381,712.77Z"/><path class="cls-1" d="M391,717.56c3,0,3-5,0-5S388,717.56,391,717.56Z"/><path class="cls-1" d="M401,716.72c3,0,3-5,0-5S398,716.72,401,716.72Z"/><path class="cls-1" d="M411,711.82c-3,0-3,5,0,5C415,716.82,415,711.82,411,711.82Z"/><path class="cls-1" d="M422,716.3c3,0,3-5,0-5S419,716.3,422,716.3Z"/><path class="cls-1" d="M432,715.56c3,0,3-5,0-5S429,715.56,432,715.56Z"/><path class="cls-1" d="M441,710.25c-3,0-3,5,0,5C445,715.25,445,710.25,441,710.25Z"/><path class="cls-1" d="M457.55,712.25a2.52,2.52,0,0,0-2.5-2.5l-4.52.2a2.5,2.5,0,0,0,0,5l4.52-.2A2.55,2.55,0,0,0,457.55,712.25Z"/><path class="cls-1" d="M340,728.66l6.52-.28c3.21-.13,3.22-5.13,0-5l-6.52.28C336.8,723.79,336.79,728.79,340,728.66Z"/><path class="cls-1" d="M339.7,737.87c3.36-.17,6.73-.35,10.09-.57,3.19-.2,3.22-5.2,0-5s-6.73.4-10.09.57C336.49,733,336.47,738,339.7,737.87Z"/><path class="cls-1" d="M353.05,741.48q-6.72.62-13.46.63c-3.22,0-3.22,5,0,5q6.75,0,13.46-.63C356.23,746.2,356.26,741.19,353.05,741.48Z"/><path class="cls-1" d="M341,751.26c-3,0-3,5,0,5S344,751.26,341,751.26Z"/><path class="cls-1" d="M350,750.63c-3,0-3,5,0,5S353,750.63,350,750.63Z"/><path class="cls-1" d="M358,750c-3,0-3,5,0,5S361,750,358,750Z"/><path class="cls-1" d="M368.61,750H366a2.5,2.5,0,0,0,0,5h2.63a2.5,2.5,0,0,0,0-5Z"/><path class="cls-1" d="M409.51,752.49c3.2-.18,3.22-5.18,0-5l-31.95,1.77c-3.2.17-3.22,5.17,0,5"/><path class="cls-1" d="M423.4,746.89a45.29,45.29,0,0,1-4.94.27c-3.22,0-3.23,5,0,5a45.29,45.29,0,0,0,4.94-.27,2.57,2.57,0,0,0,2.5-2.5A2.51,2.51,0,0,0,423.4,746.89Z"/><path class="cls-1" d="M432,746.74c-3,0-3,5,0,5S435,746.74,432,746.74Z"/><path class="cls-1" d="M441,746.53c-3,0-3,5,0,5S444,746.53,441,746.53Z"/><path class="cls-1" d="M449,746c-3,0-3,5,0,5C453,751,453,746,449,746Z"/><path class="cls-1" d="M458,746c-4,0-4,5,0,5C461,751,461,746,458,746Z"/><path class="cls-1" d="M356,722.13c-3,0-3,5,0,5S359,722.13,356,722.13Z"/><path class="cls-1" d="M364,726.92c3,0,3-5,0-5S361,726.92,364,726.92Z"/><path class="cls-1" d="M373,726.5c3,0,3-5,0-5C369,721.5,369,726.5,373,726.5Z"/><path class="cls-1" d="M381,721.08c-4,0-4,5,0,5C384,726.08,384,721.08,381,721.08Z"/><path class="cls-1" d="M390,725.87c3,0,3-5,0-5C386,720.87,386,725.87,390,725.87Z"/><path class="cls-1" d="M399,725.55c3,0,3-5,0-5S396,725.55,399,725.55Z"/><path class="cls-1" d="M409,720.45c-4,0-4,5,0,5C412,725.45,412,720.45,409,720.45Z"/><path class="cls-1" d="M418,720c-3,0-3,5,0,5S421,720,418,720Z"/><path class="cls-1" d="M427,724.29c3,0,3-5,0-5S424,724.29,427,724.29Z"/><path class="cls-1" d="M436,723.87c3,0,3-5,0-5S433,723.87,436,723.87Z"/><path class="cls-1" d="M445,723.34c3,0,3-5,0-5S442,723.34,445,723.34Z"/><path class="cls-1" d="M454,718c-3,0-3,5,0,5S457,718,454,718Z"/><path class="cls-1" d="M359,736.49c3,0,3-5,0-5S356,736.49,359,736.49Z"/><path class="cls-1" d="M368,731.28c-3,0-3,5,0,5S371,731.28,368,731.28Z"/><path class="cls-1" d="M377,731c-4,0-4,5,0,5C380,736,380,731,377,731Z"/><path class="cls-1" d="M385,734.7c4,0,4-5,0-5C382,729.7,382,734.7,385,734.7Z"/><path class="cls-1" d="M395,729.39c-4,0-4,5,0,5C398,734.39,398,729.39,395,729.39Z"/><path class="cls-1" d="M403,729.18c-3,0-3,5,0,5S406,729.18,403,729.18Z"/><path class="cls-1" d="M411,728.86c-3,0-3,5,0,5S414,728.86,411,728.86Z"/><path class="cls-1" d="M420,733.44c3,0,3-5,0-5S417,733.44,420,733.44Z"/><path class="cls-1" d="M429,727.6c-3,0-3,5,0,5S432,727.6,429,727.6Z"/><path class="cls-1" d="M438,727.07c-3,0-3,5,0,5S441,727.07,438,727.07Z"/><path class="cls-1" d="M454,725.9,447,726c-3.21,0-3.22,5,0,5l7.05-.11C457.21,730.85,457.22,725.85,454,725.9Z"/><path class="cls-1" d="M362,740.22c-3,0-3,5,0,5S365,740.22,362,740.22Z"/><path class="cls-1" d="M371,740c-3,0-3,5,0,5S374,740,371,740Z"/><path class="cls-1" d="M380,739.69c-3,0-3,5,0,5C384,744.69,384,739.69,380,739.69Z"/><path class="cls-1" d="M389,738.74c-3,0-3,5,0,5S392,738.74,389,738.74Z"/><path class="cls-1" d="M399,743.32c4,0,4-5,0-5C396,738.32,396,743.32,399,743.32Z"/><path class="cls-1" d="M407,742.8c4,0,4-5,0-5C404,737.8,404,742.8,407,742.8Z"/><path class="cls-1" d="M416,737.38c-3,0-3,5,0,5S419,737.38,416,737.38Z"/><path class="cls-1" d="M426,736.43c-4,0-4,5,0,5C429,741.43,429,736.43,426,736.43Z"/><path class="cls-1" d="M435,736.12c-3,0-3,5,0,5S438,736.12,435,736.12Z"/><path class="cls-1" d="M455.05,735.16c-3.69,0-7.36.16-11,.46-3.18.25-3.21,5.26,0,5,3.68-.3,7.35-.45,11-.46C458.27,740.15,458.27,735.15,455.05,735.16Z"/></g><path id="Headphones" class="cls-1" d="M155.07,778.73c-1.34-5.46-2.8-12.85-7.23-16.8-4.08-3.64-8.79-1.7-13.46-.84a2.84,2.84,0,0,0,.13-2,74.69,74.69,0,0,0-3.5-10,28.91,28.91,0,0,0,3.18-1.85,3.8,3.8,0,0,0,1.64-2.23,2.85,2.85,0,0,0,.85-2.82c-5.36-25.37-35.27-35.67-58.19-29.35-20,5.53-45.87,30.22-35.94,53.06a2.69,2.69,0,0,0,3.29,1.64,3.66,3.66,0,0,0,1.47.54l.54,0a2.9,2.9,0,0,0,0,.43A71.88,71.88,0,0,0,50,784.07a4.22,4.22,0,0,0,.21.57c-3.6.68-7.06,2.13-8.77,5.68-2.53,5.29.76,12.33,2.39,17.44,1.94,6,3.16,13.62,6.42,19.07,3,5.07,8,3.53,12.79,2.69l0,.2a2.87,2.87,0,0,0,3.56,2.39,3.16,3.16,0,0,0,2.11.45c5.53-.69,12-2.57,13.21-8.91.56-3-.55-6.31-1.15-9.23-.88-4.28-1.73-8.58-2.65-12.85-1.33-6.19-2.39-15.07-7.53-19.48a12.73,12.73,0,0,0-14.79-1h0A64,64,0,0,1,54.15,769a3.4,3.4,0,0,0-.33-1.36,22.94,22.94,0,0,0,2.35-.76,2.42,2.42,0,0,0,1.13-.94,3,3,0,0,0,2.94-2.83c1-13.39,10.53-25.63,23.84-28.71s27.34,3.82,34,15.43a3.53,3.53,0,0,0,.63.78,3.12,3.12,0,0,0,3.06,1.34,31,31,0,0,0,3.35-.65,1,1,0,0,0,.06.16,63.42,63.42,0,0,1,3.15,8.89l.06.17a3.76,3.76,0,0,0-.69.69c-4.61,1.58-10.35,1.7-12.1,7.19-.79,2.46,0,4.84.52,7.28,1.11,4.69,2.39,9.35,3.77,14,1.72,5.8,3.25,15.14,7.63,19.7,4.78,5,11.8,2.9,17.33.67a2.63,2.63,0,0,0,1.57-3.53,2.74,2.74,0,0,0,.27-1c4.28-1.51,10.76-3.19,12-8.05C160.05,792,156.35,783.93,155.07,778.73Zm-97.22,45.4c-2.05-.54-3.33-4.34-4.05-6.09-1.38-3.32-2.26-7-3.37-10.39-.92-2.87-1.84-5.51-2.57-8.43-1.27-5.09,1.63-8.61,6.71-8.35h0c3,11,5.36,21.6,7.4,32.66C60.75,823.84,58.67,824.35,57.85,824.13Zm25-96C67.3,731.7,55.92,745.49,54.1,761a4.52,4.52,0,0,0-.8.22,11.3,11.3,0,0,1-5.56.53c-3.36-10,3.57-21.86,10.11-29.06a46.72,46.72,0,0,1,24-14.16c18.75-4.28,43.21,3.39,48.35,23.78a24.79,24.79,0,0,1-7.49,3C114.32,732.26,98.27,724.66,82.81,728.17Zm69.18,65c.29,3.83-3.17,5-6.55,6.15a226.24,226.24,0,0,0-10.06-31.9c4.23-.64,7.72-1.67,10.57,3.2,2.12,3.63,2.73,8.69,3.71,12.76C150.41,786.49,151.75,789.9,152,793.12Z"/><g id="Coffee"><path class="cls-1" d="M486.42,634.26c-2-10.9-10.33-17-20.69-16.8-.05-.84-.09-1.68-.14-2.52a2.4,2.4,0,0,0-1.19-2c-1.32-3.31-6-4.5-9.11-5.33-5.77-1.55-11.71-1-17.61-1.07a62.29,62.29,0,0,0-7.23.52c0-2.14,1.3-4.32,2-6.64a8.92,8.92,0,0,0-.62-7.32c-1.57-2.8-5.89-.29-4.31,2.53,1.74,3.12-2.12,7.56-2.23,10.89a9.65,9.65,0,0,0,.07,1.43,61.57,61.57,0,0,0-6.84,1.92c-3.17,1.09-7.51,2.7-7.39,6.83a1.37,1.37,0,0,0,0,.19,2.48,2.48,0,0,0-.19,1.06q.34,16.51.71,33c.19,8.16,2.55,13.65,10.76,16.43,8.44,2.86,18.55,1.49,27.16.23,7.11-1,15.16-2.55,16.67-10.45a2.35,2.35,0,0,0,.82-1.83c0-.82,0-1.63,0-2.45C477.77,652.37,488.77,646.9,486.42,634.26Zm-20-3.29c3,.07,6.06,1.66,6.36,5s-3.05,4.07-6,4.13C466.75,637,466.61,634,466.46,631Zm-39.24-18.42a12.53,12.53,0,0,0,1.3,1.53c1.87,1.85,4.57-.17,4.25-2.2,2.41-.23,4.3-.34,4.91-.35,3.22.06,6.43-.1,9.64,0,2.22.05,8,.1,9.73,1.89,1.33,1.38.89,2.31-.33,2.93a2.36,2.36,0,0,0-.86-.3,109.6,109.6,0,0,0-35,.47,2.06,2.06,0,0,0-1.54,1c-1.39-.2-2.28-.46-2.32-.84C416.78,614.67,422,613.35,427.22,612.55Zm34.22,43.75c-.85,7.06-15.85,7-20.76,7.33-6.59.47-15.18,1.27-20.75-3-5.22-4-3.35-14.39-3.47-20.3l-.4-18.71a26.22,26.22,0,0,0,3.24.62c6.32.92,12.86.74,19.23.68,4,0,16.1.77,22.37-2.42.64,11.44,1.26,22.9,1.19,34.37A2.63,2.63,0,0,0,461.44,656.3Zm5.61-8.38c0-1,0-1.95-.05-2.92,5.4-.32,11.12-2.5,10.84-9-.26-6-5.9-10.25-11.64-10-.06-1.16-.13-2.32-.19-3.49,6.92,0,12.17,3,14.8,10.21C484.59,643,475.78,647.43,467.05,647.92Z"/><path class="cls-1" d="M443.36,600c.69,3.14,5.51,1.81,4.83-1.33-1.08-4.93,2.91-8.52,3.2-13.32a18.11,18.11,0,0,0-3.62-11.28c-1.81-2.64-6.14-.14-4.31,2.52,3.37,4.91,3.38,8.75.88,14A13.91,13.91,0,0,0,443.36,600Z"/></g><path id="Plant" class="cls-1" d="M281.18,496.38a2.19,2.19,0,0,0-2.31-1.68c-2.86.1-5.72.17-8.59.24a102.89,102.89,0,0,1,8.82-22.56,2.59,2.59,0,0,0-3-3.65,2.63,2.63,0,0,0-1.13-.07,22,22,0,0,0-11,5c1.06-8.12,4.18-15.75,7.61-23.25,1.19-2.61-2.17-4.92-3.83-3.23a2.65,2.65,0,0,0-.86.56,87.41,87.41,0,0,0-19.36,28.42,42.93,42.93,0,0,0-20.79-19.39,2.73,2.73,0,0,0-3.74,3,2.63,2.63,0,0,0,.61,1.41,61.35,61.35,0,0,1,9.91,16.5,15.83,15.83,0,0,0-11.43-3.22,2.59,2.59,0,0,0-1.31.54c-1.94.2-3.5,2.59-1.63,4.14,2.56,2.12,3.72,5.06,5,8l3.62,8.22h-5a2.35,2.35,0,0,0-2.4,2.62,2.2,2.2,0,0,0-.16,1.2,98.31,98.31,0,0,0,2.14,11.68,2.21,2.21,0,0,0,2.1,1.78,3.27,3.27,0,0,0,.66.1h1q2.56,14.3,5.83,28.46a2.24,2.24,0,0,0,3,1.68,2.46,2.46,0,0,0,.84.19,209.62,209.62,0,0,0,29-.33,2.43,2.43,0,0,0,1.62-.75,2.5,2.5,0,0,0,3.26-1.59A130,130,0,0,0,275.48,512l.57,0a2.42,2.42,0,0,0,1.6-.66,2.23,2.23,0,0,0,1.86-1.73,76.52,76.52,0,0,0,2.16-11.51A2,2,0,0,0,281.18,496.38ZM275,507q-24.13,1.14-48.31.77c-.56-2.44-1-4.9-1.37-7.39q25.56.15,51.13-.64A69.06,69.06,0,0,1,275,507Zm-2.53-32.57a108,108,0,0,0-7.38,20.62c-3,.07-6,.11-9,.16C259.46,486.79,263.78,477.69,272.47,474.46Zm-21.62,6.68a81.07,81.07,0,0,1,11-20.14,57.76,57.76,0,0,0-3.33,18.42,1,1,0,0,0,0,.17,63.83,63.83,0,0,0-6.34,12,44.29,44.29,0,0,0-2.12-9.37A2.56,2.56,0,0,0,250.85,481.14Zm-3.33,14.22-2.07,0a40.41,40.41,0,0,0-5.5-11,2.2,2.2,0,0,0,.41-2.16,67.45,67.45,0,0,0-6.72-15.34A38.07,38.07,0,0,1,247.52,495.36ZM233,495c-2.05-4.66-3.78-10.65-6.78-15.25,6.63,1.68,11.58,9.21,14,15.67h-7A4.28,4.28,0,0,0,233,495Zm32.2,42.81a3.81,3.81,0,0,0-.48,0,208.52,208.52,0,0,1-28.39.36q-2.87-12.6-5.17-25.32,19.65.18,39.3-.63A124.9,124.9,0,0,1,265.2,537.81Z"/><text class="cls-2" transform="translate(117.3 283.63)">A <tspan class="cls-3" x="77.64" y="0">D</tspan><tspan class="cls-4" x="123.12" y="0">a</tspan><tspan class="cls-5" x="164.76" y="0">y In The Life</tspan></text><path id="Pencil" class="cls-1" d="M709.48,816.25c.16-.12.36-.15.5-.34,13.86-17.73,27.67-35.53,38.48-55.34a2.22,2.22,0,0,0,.3-1.45,2,2,0,0,0-.54-2C743.5,752,737.32,746,730.06,745a2.39,2.39,0,0,0-2.38,1,2.2,2.2,0,0,0-1.57,1q-18.09,24.91-35,50.62a2.73,2.73,0,0,0-.22.41,2.33,2.33,0,0,0-.69,1.41c-1,7.34-1.95,14.48-2.53,21.88a2.38,2.38,0,0,0,3.13,3.05L707.82,818C708.84,817.63,709.4,817.08,709.48,816.25ZM694.78,803l3.14.56,1.08,3.31a2.46,2.46,0,0,0,2,2.31c.91.07,1.83.1,2.75.09.28,1.57.47,2.91.75,4.48,0,.12,0,.09,0,.1l-4.15,1.54s0,0-.1-.07a9.87,9.87,0,0,0-6.6-3.92C694,808.55,694.4,805.82,694.78,803Zm35.27-52.89c5.15,1.1,9.81,5.44,13.37,9.26q-2.28,4.13-4.71,8.12a42.32,42.32,0,0,0-14-9.93c1.77-2.47,3.52-4.94,5.31-7.39Zm-8.35,11.65a37,37,0,0,1,14.11,10,1.14,1.14,0,0,0,.16.15c-8.25,13-17.6,25.23-27.06,37.36-.14-.76-.27-1.51-.41-2.27a2.88,2.88,0,0,0-1.12-1.85,2.44,2.44,0,0,0-2.17-1c-.59.05-1.17.08-1.75.08l-1.17-3.58a2.28,2.28,0,0,0-.88-1.16,2.43,2.43,0,0,0-1.32-.7l-3.39-.6Q708.91,779.76,721.7,761.75Z"/></g></svg>