<svg id="assets" xmlns="http://www.w3.org/2000/svg" xmlns:xlink="http://www.w3.org/1999/xlink" viewBox="0 0 864 864"><defs><style>.cls-1,.cls-16,.cls-17,.cls-18,.cls-19,.cls-8,.cls-9{fill:none;}.cls-15,.cls-2{fill:#fff;}.cls-2,.cls-3{stroke:#231f20;}.cls-12,.cls-13,.cls-16,.cls-17,.cls-18,.cls-19,.cls-2,.cls-3,.cls-7,.cls-8,.cls-9{stroke-miterlimit:10;}.cls-2{stroke-width:3px;}.cls-3{fill:#fcb017;stroke-width:7px;}.cls-4{fill:#934e2c;}.cls-5,.cls-7{fill:#231f20;}.cls-6{fill:#414042;}.cls-13,.cls-16,.cls-17,.cls-7,.cls-8{stroke:#000;}.cls-8{stroke-width:0.41px;}.cls-9{stroke:#939598;stroke-width:0.41px;}.cls-10{fill:#955b49;}.cls-11,.cls-13{fill:#e6e7e8;}.cls-12{fill:#834f2c;stroke:#734f2c;stroke-width:0.25px;}.cls-13{stroke-width:2px;}.cls-14{fill:#452314;}.cls-17{stroke-width:1.25px;}.cls-18{stroke:#442416;opacity:0.5;}.cls-19{stroke:#ed1c24;stroke-width:1.43px;}.cls-20{fill:#ed1c24;}.cls-21{clip-path:url(#clip-path);}</style><clipPath id="clip-path"><path class="cls-1" d="M631.6,779.91c-32.53,20.5-121.64,70.42-240.61,61A384.9,384.9,0,0,1,240.9,796.85q-4.78-15.54-9.58-31.08H632.68Z"/></clipPath></defs><title>profilepic</title><g id="profilepic"><circle class="cls-2" cx="432" cy="465.12" r="392"/><circle class="cls-3" cx="432" cy="465.12" r="372"/><rect class="cls-4" x="294.43" y="457.53" width="292.86" height="222.53"/><path class="cls-5" d="M79.52,573.34a995.88,995.88,0,0,1,214.91-78.2c15.07,69.1,75.35,118.55,143.21,119.52,73.73,1.06,139.33-55.35,149.65-131.82a1145.92,1145.92,0,0,1,125.15,41.79c27.16,10.84,52.54,22.17,76.11,33.63-9,34-31.76,101.47-91.3,163.17a365.94,365.94,0,0,1-249.1,112.06c-59.79,2.27-163.17-10.7-252.36-85.14C119.07,684.31,89.85,606.42,79.52,573.34Z"/><path class="cls-4" d="M583.89,397.45C557.62,460.68,500,502.37,439.07,502.18c-80.2-.24-126.66-72.88-134-84.38-5.4-8.46-33.86-53-31.31-106.82.7-14.81,3.79-31,3.68-62.61-.08-26.73-2.36-39.43-2.95-51.88-1.63-34.83,9.12-87.41,47.15-126.76C368.73,21,431.13,20,439.5,20c7.5,0,66.71.91,114.18,46C606.55,116.31,608.6,183.41,608,194.54c-.5,9.4-.77,18.84-.77,18.84a185.45,185.45,0,0,1-4.08,25.36c-5,22.25-.26,52.64.91,66.25C605.85,325.77,603.47,356.29,583.89,397.45Z"/><path class="cls-6" d="M603.3,441.79c-16.16,51.95-66.79,135.09-150.9,141.7-105.26,8.28-173.43-110.33-181-157.65a313,313,0,0,1-2.95-31.74,293.36,293.36,0,0,1,7.91-79.43,102.63,102.63,0,0,0,12.22,65.4c17.65,30.87,45.76,42.15,53.4,44.94q6.56,13.47,13.12,26.94c5.22,5.49,37.66,38.45,89.61,37.75,52.63-.72,84.39-35.44,89.34-41l.06-20.85a39.77,39.77,0,0,0,9.61-.81c43.89-9.16,58.37-91.31,60.25-102.67a210,210,0,0,1,7.06,78.78A191.24,191.24,0,0,1,603.3,441.79Z"/><path class="cls-7" d="M409.25,216.56c-3.46,6.29-38.63-19.28-73.74-7.95-17.08,5.51-27,17.43-29.06,15.21-2.34-2.52,9.73-18.37,21.1-29.67A140.94,140.94,0,0,1,345.63,179a87.34,87.34,0,0,0,13.08,7.83c17.45,8.45,27.08,5.81,39,14.58C403.52,205.68,411,213.49,409.25,216.56Z"/><path class="cls-7" d="M575.48,227.68c-2.8,3-20.83-20.27-47.37-21.47-8.54-.38-8.41,1.94-28.87,4.44-17.95,2.2-33.59,4.11-34.43,1.32-1.9-6.36,71.57-41.94,89.95-22.78,2.24,2.33,1.58,3.31,14.8,25.9C574.44,223.43,576.48,226.62,575.48,227.68Z"/><path class="cls-7" d="M332,73.78v23.5a366.73,366.73,0,0,0-18.81,33.8,294.39,294.39,0,0,1-12.42,28.36c-5.16,10.05-12.33,34.13-21.32,95.15-5.53-17.52-15.25-56.62-4-103.82,4.62-19.35,15.43-62.07,55.29-94.92C374.63,19.74,424.19,19.76,439.5,20c17,.26,62.7,3.47,104.94,37.05C600,101.18,607.5,164.39,608.81,179A179.87,179.87,0,0,1,599,255.12a299.54,299.54,0,0,0-17.73-75.91C575.78,164.94,568.83,150.27,564,140c-8.13-17.13-15.55-31.21-21.1-41.33q-.79-14-1.61-27.92a651.56,651.56,0,0,0-209.22,3Z"/><path class="cls-6" d="M355.12,452H340.39V387.33l14.73-8.1Z"/><path class="cls-6" d="M547.72,465.14H530.67V376.43l16.55,13Q547.47,427.29,547.72,465.14Z"/><path class="cls-8" d="M449,439a36.07,36.07,0,0,0-1.4,12.33,35.26,35.26,0,0,0,.9,6"/><path class="cls-8" d="M444.14,437.68A35.85,35.85,0,0,0,442.75,450a35.1,35.1,0,0,0,.9,6"/><path class="cls-8" d="M442,440.64a36.3,36.3,0,0,0-.12,12.42,35,35,0,0,0,1.52,5.91"/><path class="cls-9" d="M448.25,440.94a23.43,23.43,0,0,0-2.54,10.51,29.89,29.89,0,0,0,.51,5.74"/><path class="cls-9" d="M443,443.9a23.29,23.29,0,0,0-2.54,10.51,29.11,29.11,0,0,0,.51,5.74"/><path class="cls-9" d="M446.08,442.12A23.44,23.44,0,0,1,450,452.19a30.37,30.37,0,0,1,.27,5.76"/><path class="cls-9" d="M447.31,443.47a23.44,23.44,0,0,1,3.94,10.08,28.68,28.68,0,0,1,.27,5.75"/><path class="cls-8" d="M444.54,440.87a36.14,36.14,0,0,0,.7,12.4,36.56,36.56,0,0,0,1.9,5.8"/><path class="cls-8" d="M450.39,441.74a35.59,35.59,0,0,1,.5,18.37"/><path class="cls-10" d="M368.41,402.33A209,209,0,0,1,389.24,390c22.34-11.56,41.29-16.19,47.49-12.66a11.92,11.92,0,0,0,6.37,1.84,11.38,11.38,0,0,0,5.6-1.69c3.11-1.78,15.85.5,54.66,15.87,4,1.95,9.6,4.79,16.31,8.44-1.46,2.37-27.16,42.3-75.83,42.29C395.63,444,370,404.84,368.41,402.33Z"/><path class="cls-11" d="M395.25,404.28c14.34-.85,29.52-1.33,45.46-1.3,16.81,0,32.78.62,47.83,1.6a118.13,118.13,0,0,1-93.29-.3Z"/><path class="cls-4" d="M273.05,259.77a21.52,21.52,0,0,0-15,.3,11.25,11.25,0,0,0-3.12,1.94c-4.93,4.51-3.43,13.57-2.88,17.91,2,15.84-2.54,16.06-1.17,31.6,1.74,19.65,11.37,45.86,18.69,45.31C283,355.82,287.55,264.94,273.05,259.77Z"/><path class="cls-12" d="M269.18,275.74c-2.68-2.08-6.08-4.12-8.3-3-3.33,1.72-2.28,9.74-1.19,17.48,2.37,16.85,4.27,30.07,5.64,39.43a192.53,192.53,0,0,0,3.26-20.16A191,191,0,0,0,269.18,275.74Z"/><path class="cls-4" d="M603.73,259.77a21.52,21.52,0,0,1,15,.3,11.39,11.39,0,0,1,3.12,1.94c4.93,4.51,3.43,13.57,2.88,17.91-2,15.84,2.54,16.06,1.17,31.6-1.74,19.65-11.37,45.86-18.69,45.31C593.81,355.82,589.23,264.94,603.73,259.77Z"/><path class="cls-12" d="M606.62,275.74c2.67-2.08,6.08-4.12,8.3-3,3.33,1.72,2.27,9.74,1.18,17.48-2.36,16.85-4.27,30.07-5.63,39.43a189.95,189.95,0,0,1-3.85-53.95Z"/><path class="cls-6" d="M439.64,345.91a172,172,0,0,0-99.25,36.44v20.13a185.07,185.07,0,0,1,99.25-34.94Z"/><path class="cls-6" d="M445.35,345.84v21.49a184.08,184.08,0,0,1,101.82,31.95l.05-16.14C537.27,375.1,500.32,347.14,445.35,345.84Z"/><path class="cls-13" d="M395.75,255.5c-3.46.55-8.66,1.46-14.92,2.84-13.9,3.07-18.16,5.19-23.79,6-7.19,1-17.78-.06-32-9.81,2.69-2.74,14.1-13.77,32.25-14.75C379.44,238.55,393.73,253.34,395.75,255.5Z"/><path class="cls-14" d="M372.75,250.48c.12,6.34-7.21,11.56-13.87,11.56-7.67,0-13.88-5.18-13.88-11.56a12.61,12.61,0,0,1,3.68-7.83l.22-.21a37.9,37.9,0,0,1,8.56-1.42,37.45,37.45,0,0,1,10.22.91C368.57,242.59,372.66,245.8,372.75,250.48Z"/><path class="cls-15" d="M362.7,248.66a3.71,3.71,0,0,1-1.81,3.1,3.4,3.4,0,0,1-3.93-.15c-1.47-1.41-.28-4-.15-4.23s1.2-2.5,3-2.42C361.46,245,362.73,246.93,362.7,248.66Z"/><path class="cls-13" d="M548.83,255.75c1.53-4.65-15.39-18.83-33.55-19.5-20.54-.76-34.43,16.07-36.52,18.68a147,147,0,0,1,36.52,2.92,75.88,75.88,0,0,0,27.69.32C547.13,257.45,548.48,256.83,548.83,255.75Z"/><path class="cls-14" d="M530.25,247.6a10.7,10.7,0,0,1-9.3,10.27l-13.32-1.3c-.28-.17-5.15-3.29-5.13-9a10.54,10.54,0,0,1,7.94-10,42.17,42.17,0,0,1,4.54-.27,42.77,42.77,0,0,1,8.67.82A10.55,10.55,0,0,1,530.25,247.6Z"/><path class="cls-15" d="M520.2,245.78a3.69,3.69,0,0,1-1.81,3.1,3.4,3.4,0,0,1-3.93-.15c-1.46-1.41-.27-4-.15-4.23s1.2-2.5,3-2.42C519,242.15,520.23,244.05,520.2,245.78Z"/><line class="cls-16" x1="416.58" y1="403.78" x2="416.58" y2="410.38"/><line class="cls-17" x1="443.03" y1="403.25" x2="443.03" y2="413.35"/><line class="cls-16" x1="464.74" y1="404.21" x2="464.74" y2="410.65"/><path class="cls-18" d="M418.64,276.81a73.43,73.43,0,0,1-14.85,25.53c-8.48,9.34-15.47,11.85-16.72,19.82-1.11,7,3.28,13.77,7.43,17.35,7.8,6.75,20.41,7.18,31,.62"/><path class="cls-18" d="M460.85,277.52a78.93,78.93,0,0,0,15.34,24.82c8.64,9.34,15.6,11.93,16.73,19.82,1,7-3.25,13.74-7.43,17.35-7.8,6.75-20.42,7.18-31,.62"/><path class="cls-5" d="M421,331.15a11.12,11.12,0,0,1-6.36,3.36,12.15,12.15,0,0,1-5.47-.61c-1.23-.37-3.68-1.1-3.63-1.85.07-1.06,5.21-1.73,9.18-1.66A31.38,31.38,0,0,1,421,331.15Z"/><path class="cls-5" d="M479.08,331.15a11.12,11.12,0,0,1-6.36,3.36,12.13,12.13,0,0,1-5.47-.61c-1.23-.37-3.69-1.1-3.64-1.85.07-1.06,5.22-1.73,9.18-1.66A31.4,31.4,0,0,1,479.08,331.15Z"/><path class="cls-18" d="M402.84,332.72a31.94,31.94,0,0,1,12.29-2.32c13.51.22,16.81,10.14,27.7,9.66,8.92-.4,10.21-7.13,22.33-9.13a38.44,38.44,0,0,1,16.23.94"/><g id="outline"><path class="cls-15" d="M294.27,695.42v-5.21h41.66v10.41h10.42V711H325.51V700.62H304.68V711H294.27v31.25h10.41V752.7h20.83V742.29h20.84V752.7H335.93v10.42H294.27V752.7H283.85V742.29H273.44V711h10.41V700.62h10.42Z"/><path class="cls-15" d="M367.18,716.25V711h52.07v10.42h10.42V752.7H419.25v10.42H367.18V752.7H356.76V721.46h10.42Zm41.66,20.83V721.46H377.59V752.7h31.25Z"/><path class="cls-15" d="M492.16,700.62V690.21H513v72.91H450.5V752.7H440.09V721.46H450.5V711h41.66Zm0,36.46V721.46H460.92V752.7h31.24Z"/><path class="cls-15" d="M533.83,716.25V711h52.08v10.42h10.41v20.83H544.24V752.7h41.67v10.42H533.83V752.7H523.41V721.46h10.42Zm41.66,10.41v-5.2H544.24v10.41h31.25Z"/><path class="cls-15" d="M356.09,683.38v-6.65h13.29v1.9h-9.5v3.8h7.6v1.9h-7.6v3.79h9.5V690H356.09Z"/><path class="cls-15" d="M371.28,685.28v-4.75h11.39v1.9h1.9V690h-3.79v-7.59h-5.7V690h-3.8Z"/><path class="cls-15" d="M392.17,681.48v-1h5.7V690H396v1.9h-7.6V690h5.7v-7.59h-1.9Zm1.9-3.8v-.95h3.8v1.9h-3.8Z"/><path class="cls-15" d="M403.56,681.48v-1h9.5v1.9H415v5.69h-1.9V690h-9.5v-1.9h-1.89v-5.69h1.89Zm7.6,3.8v-2.85h-5.7v5.69h5.7Z"/><path class="cls-15" d="M416.86,683.38v-2.85h3.8v5.7h5.69v-5.7h3.8V690h-1.9v1.9h-9.49V690h7.59v-1.9h-7.59v-1.89h-1.9Z"/></g><circle class="cls-19" cx="610.05" cy="700.22" r="9.26"/><path class="cls-20" d="M615.15,705.34h-2.92v-2.91h-1.46v1.46h-1.45v1.45h-4.38v-1.45h1.46v-1.46h1.46V701h-2.92v-4.38h1.46v-1.46h8.75v10.21Zm-7.29-5.83h1.46V701h2.91v-4.38h-4.37v2.92Z"/><g class="cls-21"><path class="cls-15" d="M249.71,791.16a302.3,302.3,0,0,0,41.74,18.56,317.12,317.12,0,0,0,58,14.49c15.1,2.5,37.06,6,66.18,5.19,0,0,43.05-1.22,76.32-12.63,6.06-2.07,12.33-4.59,12.33-4.59a240.89,240.89,0,0,0,23-10.57c3.37-1.79,7.81-4.27,12.92-7.46,4.26-2.29,10.57-5.66,18.36-9.72,3.84-2,5.75-3,7.51-3.88a169.81,169.81,0,0,1,24.33-10.21,109.35,109.35,0,0,1,29.69-4.87L620,794.58a162,162,0,0,0-19.39-1.86,158.66,158.66,0,0,0-19.46.49,166.25,166.25,0,0,0-25.38,4.4c-10.2,2.54-17.21,5.22-27.9,9.3-12,4.59-21,8.67-26.61,11.25-8.61,3.94-15.32,7.31-28.76,14.06-12.51,6.28-13.29,6.85-18.38,9.08a240.94,240.94,0,0,1-23.79,8.87c-3.79,1.21-10.73,3.41-19.25,5.4a215,215,0,0,1-37.42,5.19,286.93,286.93,0,0,1-46.28-1.29,324.85,324.85,0,0,1-37.41-6.28,392.09,392.09,0,0,1-40.23-11Z"/></g></g></svg>