<svg id="assets" xmlns="http://www.w3.org/2000/svg" viewBox="0 0 390.17 820.36"><defs><style>.cls-1,.cls-2{fill:none;stroke:#3c68b2;stroke-miterlimit:10;}.cls-1{stroke-width:14.68px;}.cls-2{stroke-linecap:round;stroke-width:14.68px;}</style></defs><title>right</title><g id="left_right_brain" data-name="left right brain"><path class="cls-1" d="M7.34,781.74c19.46,11.7,54.19,28.63,99.79,30.79,19.44.92,51.25,2.43,85.19-15C220.61,783,238,761.62,246.68,750.65a189.17,189.17,0,0,0,38.44-85A164,164,0,0,0,321,637.39c10-10.49,24.17-28.15,37.44-62.44,14-36.1,43.17-111.53,7.12-169.65a113.62,113.62,0,0,0-22.28-26,262.74,262.74,0,0,0,11.14-81.7c-.66-28.31-1.48-63-24.14-96.54a145.74,145.74,0,0,0-37.13-37.14,149.41,149.41,0,0,0-53.43-23.27,94.52,94.52,0,0,1-11.55-21.29,93.24,93.24,0,0,1-5.57-22.28C220,79.12,189.2,19.63,128.13,9,82.62,1,34.92,22.74,7.57,64Z"/><path class="cls-2" d="M112.68,208.57c5.37,2.44,37.78,16.55,73.35,1.33,44.18-18.89,53.05-65.79,53.64-69.24"/><path class="cls-2" d="M250.05,414a79.77,79.77,0,0,0,50.68,0c26.47-9,39.28-29.2,42.5-34.65"/><path class="cls-2" d="M151.36,542c4.75-1,58.55-10.69,100,29.34,41.32,39.89,33.69,93.76,32.91,98.61"/><path class="cls-2" d="M160.69,652.69c-.08-8.53.93-28.91,14.68-48,25.88-36,72.59-33.57,76-33.34"/><path class="cls-2" d="M112.68,308.6c-8.54-1.67-31.44-4.92-56,6.67-37,17.44-47.65,54.31-49.2,60"/><path class="cls-2" d="M244.78,240.52c21.31,26,22.63,62.38,4.18,87.64-15.29,20.94-42.05,31.39-68.87,27.13,1.08,4,11.45,45.32-16.7,79.3-23.57,28.47-56.91,31-62.6,31.31"/></g></svg>