<svg id="assets" xmlns="http://www.w3.org/2000/svg" viewBox="0 0 864 864"><defs><style>.cls-1{fill:#58595b;}.cls-2{fill:#f7941d;}.cls-3{fill:#fff;stroke:#000;stroke-miterlimit:10;}</style></defs><title>skills-ai</title><g id="skills"><path class="cls-1" d="M432,141.69c-160.33,0-290.31,130-290.31,290.31S271.67,722.31,432,722.31,722.31,592.33,722.31,432,592.33,141.69,432,141.69Zm0,533.81c-134.48,0-243.5-109-243.5-243.5s109-243.5,243.5-243.5,243.5,109,243.5,243.5S566.48,675.5,432,675.5Z"/><path class="cls-2" d="M672.64,394.86A246,246,0,0,1,675.46,432c0,134.47-109,243.49-243.5,243.49s-243.5-109-243.5-243.49,109-243.5,243.5-243.5a245.84,245.84,0,0,1,35.29,2.55l12.33-45.48c-6.88-1.24-14.43-2.3-22.57-3A246.18,246.18,0,0,0,432,141.7C272.7,141.7,141.65,272.75,141.65,432c0,158.69,130.71,290.31,290.31,290.31,159.26,0,290.31-131.05,290.31-290.31a223.42,223.42,0,0,0-.68-24.41A226.83,226.83,0,0,0,718,382.1Z"/><path class="cls-3" d="M351.58,459.72l-23.81,72.09h-30.6L375,302.61h35.71L489,531.81H457.33l-24.48-72.09Zm75.15-23.13-22.45-66c-5.1-15-8.5-28.56-11.9-41.83h-.68c-3.4,13.61-7.14,27.55-11.56,41.49L357.7,436.59Z"/><path class="cls-3" d="M553.91,321c.34,10.2-7.14,18.37-19,18.37-10.54,0-18-8.17-18-18.37a18.23,18.23,0,0,1,18.7-18.7C546.77,302.27,553.91,310.43,553.91,321ZM520.59,531.81V367.22h29.92V531.81Z"/></g></svg>