<svg id="assets" xmlns="http://www.w3.org/2000/svg" viewBox="0 0 864 864"><defs><style>.cls-1{fill:#58595b;}.cls-2{fill:#da1c5c;}.cls-3{fill:#fff;stroke:#000;stroke-miterlimit:10;}</style></defs><title>skills-id</title><g id="skills"><path class="cls-1" d="M432,141.69c-160.33,0-290.31,130-290.31,290.31S271.67,722.31,432,722.31,722.31,592.33,722.31,432,592.33,141.69,432,141.69Zm0,533.81c-134.48,0-243.5-109-243.5-243.5s109-243.5,243.5-243.5,243.5,109,243.5,243.5S566.48,675.5,432,675.5Z"/><path class="cls-2" d="M651.89,536.66C606,621.76,521.43,675.74,432,675.51c-123.56-.31-243.5-104-243.5-243.49,0-134.48,109-243.5,243.5-243.5a245.84,245.84,0,0,1,35.29,2.55l12.33-45.48c-6.88-1.24-14.43-2.3-22.57-3A246.18,246.18,0,0,0,432,141.7C272.7,141.7,141.65,272.75,141.65,432S272.7,722.33,432,722.33c27.72-.33,106-5,178.66-61.46A292.26,292.26,0,0,0,694.2,556.78Z"/><path class="cls-3" d="M349.71,321.65v229.2H320.12V321.65Z"/><path class="cls-3" d="M542.52,309.41V508.34c0,14.63.34,31.29,1.36,42.51H517l-1.36-28.56H515c-9.18,18.36-29.24,32.3-56.11,32.3-39.78,0-70.39-33.67-70.39-83.65-.34-54.75,33.67-88.42,73.8-88.42,25.16,0,42.16,11.9,49.64,25.17h.68V309.41ZM512.59,453.25a52.82,52.82,0,0,0-1.36-12.58c-4.42-19-20.74-34.68-43.18-34.68-30.95,0-49.31,27.2-49.31,63.59,0,33.32,16.32,60.87,48.63,60.87,20.06,0,38.42-13.27,43.86-35.71a52,52,0,0,0,1.36-12.92Z"/></g></svg>