<svg id="assets" xmlns="http://www.w3.org/2000/svg" viewBox="0 0 864 864"><defs><style>.cls-1{fill:#58595b;}.cls-2{fill:#1b75bc;}.cls-3{fill:#fff;stroke:#000;stroke-miterlimit:10;}</style></defs><title>skills-ps</title><g id="skills"><path class="cls-1" d="M432,141.69c-160.33,0-290.31,130-290.31,290.31S271.67,722.31,432,722.31,722.31,592.33,722.31,432,592.33,141.69,432,141.69Zm0,533.81c-134.48,0-243.5-109-243.5-243.5s109-243.5,243.5-243.5,243.5,109,243.5,243.5S566.48,675.5,432,675.5Z"/><path class="cls-2" d="M675.46,432c0,133.57-109.92,243.49-243.5,243.49S188.46,565.57,188.46,432c0-134.48,109-243.5,243.5-243.5a245.84,245.84,0,0,1,35.29,2.55l12.33-45.48c-6.88-1.24-14.43-2.3-22.57-3A246.18,246.18,0,0,0,432,141.7C272.7,141.7,141.65,272.75,141.65,432c0,158.69,130.71,290.31,290.31,290.31,159.26,0,290.31-131.05,290.31-290.31Z"/><path class="cls-3" d="M297.68,319.27a342.84,342.84,0,0,1,56.78-4.42c29.25,0,50.67,6.8,64.28,19,12.58,10.88,20.06,27.55,20.06,47.95,0,20.74-6.12,37.07-17.68,49C405.47,447.47,380,456,351.06,456c-8.84,0-17-.34-23.8-2v91.82H297.68Zm29.58,110.52c6.46,1.7,14.62,2.38,24.48,2.38,35.71,0,57.47-17.34,57.47-49,0-30.26-21.42-44.89-54.06-44.89-12.93,0-22.79,1-27.89,2.38Z"/><path class="cls-3" d="M466,515.14c8.84,5.79,24.48,11.91,39.44,11.91,21.77,0,32-10.89,32-24.49,0-14.28-8.5-22.1-30.61-30.26-29.58-10.54-43.52-26.87-43.52-46.59,0-26.53,21.42-48.29,56.79-48.29,16.66,0,31.28,4.76,40.46,10.2l-7.48,21.77a64,64,0,0,0-33.66-9.53c-17.69,0-27.55,10.21-27.55,22.45,0,13.6,9.86,19.72,31.29,27.88,28.56,10.89,43.18,25.17,43.18,49.65,0,28.91-22.44,49.31-61.55,49.31-18,0-34.68-4.42-46.24-11.22Z"/></g></svg>