<svg id="assets" xmlns="http://www.w3.org/2000/svg" viewBox="0 0 864 864"><defs><style>.cls-1,.cls-2,.cls-4,.cls-5{fill:none;stroke:#231f20;stroke-miterlimit:10;}.cls-1{stroke-width:18.14px;}.cls-2{stroke-width:16.92px;}.cls-3{fill:#231f20;}.cls-4{stroke-width:21.15px;}.cls-5{stroke-linecap:round;stroke-width:10.57px;}</style></defs><title>teabag</title><g id="teabag"><path class="cls-1" d="M459,791.36H15V255.25L138.66,131.66H332.13L459,258.52Z"/><path class="cls-2" d="M846.1,631.19,672.71,803.87l-145.9-148-1.41-93,76.12-75.42L699,485.06Z"/><rect class="cls-3" x="145.01" y="185.58" width="171.27" height="22.2"/><path class="cls-4" d="M232.56,134.63c6.43-9.06,56.09-76.88,131.29-75.91,83.74,1.07,148.81,86.77,155.41,155.41,4.16,43.25-17.11,54.61-18.37,142.48-.68,47.61,5.15,72.91,12,92.22a219.5,219.5,0,0,0,44.32,73.56"/><path class="cls-5" d="M566.68,633.26c4.89,4.8,22.36,20.78,50.05,23.26A82.36,82.36,0,0,0,664.66,646"/><path class="cls-5" d="M602.93,624.84c9.63-20.58,22-29.18,30.31-33.12,12.23-5.78,24.06-5.46,70.79,2.29,21.11,3.51,39.37,6.87,54,9.69a92.35,92.35,0,0,1-6.76,27.41c-1.43,3.42-9.81,22.87-27.78,36.73-32.51,25.08-74.28,14.8-79.64,13.39"/></g></svg>